<svg width="180" height="180" viewBox="0 0 180 180" fill="none" xmlns="http://www.w3.org/2000/svg">
<rect width="180" height="180" fill="#020617"/>
<path d="M29.1064 83L38.3224 60.6H43.6664L52.7864 83H47.7624L45.4904 77.112H36.2424L33.9384 83H29.1064ZM37.6824 73.4H44.0824L40.8824 65.144L37.6824 73.4ZM54.3999 83V66.328H58.7839V67.704C60.0425 66.5733 61.5999 66.008 63.4559 66.008C64.7572 66.008 65.8985 66.296 66.8799 66.872C67.8825 67.4267 68.6612 68.2053 69.2159 69.208C69.7705 70.1893 70.0479 71.3413 70.0479 72.664V83H65.6639V73.304C65.6639 72.216 65.3545 71.3627 64.7359 70.744C64.1172 70.104 63.2745 69.784 62.2079 69.784C61.4612 69.784 60.7999 69.9333 60.2239 70.232C59.6479 70.5093 59.1679 70.9147 58.7839 71.448V83H54.3999ZM80.8039 83.256C78.9479 83.256 77.5399 82.84 76.5799 82.008C75.6412 81.1547 75.1719 79.9173 75.1719 78.296V69.976H71.7479V66.328H75.1719V62.072L79.5559 61.08V66.328H84.3239V69.976H79.5559V77.4C79.5559 78.168 79.7265 78.7227 80.0679 79.064C80.4092 79.384 81.0065 79.544 81.8599 79.544C82.2865 79.544 82.6705 79.5227 83.0119 79.48C83.3745 79.416 83.7692 79.3093 84.1959 79.16V82.776C83.7479 82.9253 83.1825 83.0427 82.4999 83.128C81.8385 83.2133 81.2732 83.256 80.8039 83.256ZM94.4029 83.32C92.7389 83.32 91.2349 82.936 89.8909 82.168C88.5469 81.4 87.4802 80.3653 86.6909 79.064C85.9015 77.7627 85.5069 76.3013 85.5069 74.68C85.5069 73.0587 85.8909 71.5973 86.6589 70.296C87.4482 68.9733 88.5149 67.928 89.8589 67.16C91.2242 66.392 92.7389 66.008 94.4029 66.008C96.0669 66.008 97.5709 66.392 98.9149 67.16C100.28 67.928 101.347 68.9733 102.115 70.296C102.904 71.5973 103.299 73.0587 103.299 74.68C103.299 76.3013 102.904 77.7627 102.115 79.064C101.347 80.3653 100.291 81.4 98.9469 82.168C97.6029 82.936 96.0882 83.32 94.4029 83.32ZM94.4029 79.512C95.2775 79.512 96.0562 79.2987 96.7389 78.872C97.4429 78.4453 97.9975 77.8693 98.4029 77.144C98.8295 76.3973 99.0429 75.576 99.0429 74.68C99.0429 73.7627 98.8295 72.9413 98.4029 72.216C97.9975 71.4907 97.4429 70.9147 96.7389 70.488C96.0562 70.04 95.2775 69.816 94.4029 69.816C93.5495 69.816 92.7709 70.04 92.0669 70.488C91.3629 70.9147 90.8082 71.4907 90.4029 72.216C89.9975 72.9413 89.7949 73.7627 89.7949 74.68C89.7949 75.576 89.9975 76.3973 90.4029 77.144C90.8082 77.8693 91.3629 78.4453 92.0669 78.872C92.7709 79.2987 93.5495 79.512 94.4029 79.512ZM105.994 83V66.328H110.378V67.704C111.636 66.5733 113.194 66.008 115.05 66.008C116.351 66.008 117.492 66.296 118.474 66.872C119.476 67.4267 120.255 68.2053 120.81 69.208C121.364 70.1893 121.642 71.3413 121.642 72.664V83H117.258V73.304C117.258 72.216 116.948 71.3627 116.33 70.744C115.711 70.104 114.868 69.784 113.802 69.784C113.055 69.784 112.394 69.9333 111.818 70.232C111.242 70.5093 110.762 70.9147 110.378 71.448V83H105.994ZM124.962 83V66.328H129.346V83H124.962ZM127.138 64.344C126.456 64.344 125.869 64.0987 125.378 63.608C124.888 63.1173 124.642 62.5307 124.642 61.848C124.642 61.144 124.888 60.5573 125.378 60.088C125.869 59.5973 126.456 59.352 127.138 59.352C127.842 59.352 128.429 59.5973 128.898 60.088C129.389 60.5573 129.634 61.144 129.634 61.848C129.634 62.5307 129.389 63.1173 128.898 63.608C128.429 64.0987 127.842 64.344 127.138 64.344ZM140.903 83.32C139.239 83.32 137.735 82.936 136.391 82.168C135.047 81.4 133.98 80.3653 133.191 79.064C132.402 77.7627 132.007 76.3013 132.007 74.68C132.007 73.0587 132.391 71.5973 133.159 70.296C133.948 68.9733 135.015 67.928 136.359 67.16C137.724 66.392 139.239 66.008 140.903 66.008C142.567 66.008 144.071 66.392 145.415 67.16C146.78 67.928 147.847 68.9733 148.615 70.296C149.404 71.5973 149.799 73.0587 149.799 74.68C149.799 76.3013 149.404 77.7627 148.615 79.064C147.847 80.3653 146.791 81.4 145.447 82.168C144.103 82.936 142.588 83.32 140.903 83.32ZM140.903 79.512C141.778 79.512 142.556 79.2987 143.239 78.872C143.943 78.4453 144.498 77.8693 144.903 77.144C145.33 76.3973 145.543 75.576 145.543 74.68C145.543 73.7627 145.33 72.9413 144.903 72.216C144.498 71.4907 143.943 70.9147 143.239 70.488C142.556 70.04 141.778 69.816 140.903 69.816C140.05 69.816 139.271 70.04 138.567 70.488C137.863 70.9147 137.308 71.4907 136.903 72.216C136.498 72.9413 136.295 73.7627 136.295 74.68C136.295 75.576 136.498 76.3973 136.903 77.144C137.308 77.8693 137.863 78.4453 138.567 78.872C139.271 79.2987 140.05 79.512 140.903 79.512ZM56.9146 125.352C55.2506 125.352 53.704 125.064 52.2746 124.488C50.8453 123.891 49.5866 123.069 48.4986 122.024C47.4106 120.957 46.5573 119.731 45.9386 118.344C45.3413 116.936 45.0426 115.421 45.0426 113.8C45.0426 112.179 45.3413 110.675 45.9386 109.288C46.5573 107.88 47.4 106.653 48.4666 105.608C49.5333 104.541 50.7813 103.72 52.2106 103.144C53.6613 102.547 55.208 102.248 56.8506 102.248C58.7066 102.248 60.456 102.621 62.0986 103.368C63.7413 104.093 65.096 105.117 66.1626 106.44L62.9306 109.416C62.1626 108.456 61.256 107.731 60.2106 107.24C59.1653 106.749 58.0453 106.504 56.8506 106.504C55.848 106.504 54.92 106.696 54.0666 107.08C53.2133 107.443 52.4666 107.955 51.8266 108.616C51.1866 109.256 50.6853 110.024 50.3226 110.92C49.9813 111.795 49.8106 112.755 49.8106 113.8C49.8106 114.845 49.992 115.816 50.3546 116.712C50.7173 117.608 51.2186 118.387 51.8586 119.048C52.52 119.688 53.2773 120.2 54.1306 120.584C55.0053 120.947 55.9546 121.128 56.9786 121.128C58.0453 121.128 59.0053 120.936 59.8586 120.552C60.712 120.147 61.4266 119.592 62.0026 118.888C62.6 118.163 62.9946 117.352 63.1866 116.456H56.5626V112.424H68.1466V113.832C68.1466 115.496 67.8586 117.032 67.2826 118.44C66.728 119.827 65.9493 121.043 64.9466 122.088C63.944 123.112 62.76 123.912 61.3946 124.488C60.0293 125.064 58.536 125.352 56.9146 125.352ZM71.0249 125V108.328H75.4089V110.184C75.9422 109.459 76.5822 108.904 77.3289 108.52C78.0755 108.136 78.9182 107.944 79.8569 107.944C80.6675 107.965 81.2755 108.093 81.6809 108.328V112.168C81.3609 112.019 81.0089 111.912 80.6249 111.848C80.2409 111.763 79.8462 111.72 79.4409 111.72C78.5875 111.72 77.8089 111.933 77.1049 112.36C76.4009 112.787 75.8355 113.395 75.4089 114.184V125H71.0249ZM91.5591 125.32C89.8951 125.32 88.3911 124.936 87.0471 124.168C85.7031 123.4 84.6365 122.365 83.8471 121.064C83.0578 119.763 82.6631 118.301 82.6631 116.68C82.6631 115.059 83.0471 113.597 83.8151 112.296C84.6045 110.973 85.6711 109.928 87.0151 109.16C88.3805 108.392 89.8951 108.008 91.5591 108.008C93.2231 108.008 94.7271 108.392 96.0711 109.16C97.4365 109.928 98.5031 110.973 99.2711 112.296C100.06 113.597 100.455 115.059 100.455 116.68C100.455 118.301 100.06 119.763 99.2711 121.064C98.5031 122.365 97.4471 123.4 96.1031 124.168C94.7591 124.936 93.2445 125.32 91.5591 125.32ZM91.5591 121.512C92.4338 121.512 93.2125 121.299 93.8951 120.872C94.5991 120.445 95.1538 119.869 95.5591 119.144C95.9858 118.397 96.1991 117.576 96.1991 116.68C96.1991 115.763 95.9858 114.941 95.5591 114.216C95.1538 113.491 94.5991 112.915 93.8951 112.488C93.2125 112.04 92.4338 111.816 91.5591 111.816C90.7058 111.816 89.9271 112.04 89.2231 112.488C88.5191 112.915 87.9645 113.491 87.5591 114.216C87.1538 114.941 86.9511 115.763 86.9511 116.68C86.9511 117.576 87.1538 118.397 87.5591 119.144C87.9645 119.869 88.5191 120.445 89.2231 120.872C89.9271 121.299 90.7058 121.512 91.5591 121.512ZM109.39 125.32C107.854 125.32 106.435 125.128 105.134 124.744C103.833 124.339 102.702 123.763 101.742 123.016L103.918 120.104C104.878 120.744 105.795 121.224 106.67 121.544C107.566 121.864 108.451 122.024 109.326 122.024C110.307 122.024 111.086 121.864 111.662 121.544C112.259 121.203 112.558 120.765 112.558 120.232C112.558 119.805 112.387 119.464 112.046 119.208C111.726 118.952 111.203 118.771 110.478 118.664L107.278 118.184C105.614 117.928 104.355 117.395 103.502 116.584C102.649 115.752 102.222 114.664 102.222 113.32C102.222 112.232 102.499 111.304 103.054 110.536C103.63 109.747 104.43 109.139 105.454 108.712C106.499 108.264 107.737 108.04 109.166 108.04C110.382 108.04 111.566 108.211 112.718 108.552C113.891 108.893 114.99 109.416 116.014 110.12L113.902 112.968C112.985 112.392 112.11 111.976 111.278 111.72C110.446 111.464 109.603 111.336 108.75 111.336C107.961 111.336 107.321 111.485 106.83 111.784C106.361 112.083 106.126 112.477 106.126 112.968C106.126 113.416 106.297 113.768 106.638 114.024C106.979 114.28 107.566 114.461 108.398 114.568L111.566 115.048C113.23 115.283 114.499 115.816 115.374 116.648C116.249 117.459 116.686 118.515 116.686 119.816C116.686 120.883 116.366 121.832 115.726 122.664C115.086 123.475 114.222 124.125 113.134 124.616C112.046 125.085 110.798 125.32 109.39 125.32ZM125.333 125.32C124.053 125.32 122.911 125.043 121.909 124.488C120.927 123.912 120.149 123.123 119.573 122.12C119.018 121.117 118.741 119.965 118.741 118.664V108.328H123.125V118.024C123.125 119.091 123.434 119.944 124.053 120.584C124.693 121.224 125.546 121.544 126.613 121.544C127.338 121.544 127.989 121.405 128.565 121.128C129.162 120.829 129.653 120.413 130.037 119.88V108.328H134.421V125H130.037V123.656C128.757 124.765 127.189 125.32 125.333 125.32Z" fill="white"/>
</svg>
