<svg width="640" height="338" viewBox="0 0 640 338" fill="none" xmlns="http://www.w3.org/2000/svg">
<rect width="640" height="338" rx="20" fill="#0F172A"/>
<path d="M38.744 49V42.328L31.976 32.2H34.904L40.064 40.096L45.224 32.2H48.032L41.264 42.376V49H38.744ZM52.1615 49.24C50.9775 49.24 49.8975 48.96 48.9215 48.4C47.9615 47.84 47.2015 47.08 46.6415 46.12C46.0815 45.16 45.8015 44.088 45.8015 42.904C45.8015 41.72 46.0815 40.648 46.6415 39.688C47.2015 38.728 47.9615 37.968 48.9215 37.408C49.8975 36.832 50.9775 36.544 52.1615 36.544C53.3615 36.544 54.4415 36.832 55.4015 37.408C56.3615 37.968 57.1215 38.728 57.6815 39.688C58.2415 40.648 58.5215 41.72 58.5215 42.904C58.5215 44.088 58.2415 45.16 57.6815 46.12C57.1215 47.08 56.3615 47.84 55.4015 48.4C54.4415 48.96 53.3615 49.24 52.1615 49.24ZM52.1615 47.128C52.9135 47.128 53.5935 46.944 54.2015 46.576C54.8095 46.192 55.2895 45.68 55.6415 45.04C55.9935 44.4 56.1695 43.68 56.1695 42.88C56.1695 42.096 55.9855 41.392 55.6175 40.768C55.2655 40.128 54.7855 39.616 54.1775 39.232C53.5855 38.848 52.9135 38.656 52.1615 38.656C51.4095 38.656 50.7295 38.848 50.1215 39.232C49.5295 39.616 49.0495 40.128 48.6815 40.768C48.3295 41.392 48.1535 42.096 48.1535 42.88C48.1535 43.68 48.3295 44.4 48.6815 45.04C49.0335 45.68 49.5135 46.192 50.1215 46.576C50.7295 46.944 51.4095 47.128 52.1615 47.128ZM65.519 49.24C64.575 49.24 63.743 49.04 63.023 48.64C62.303 48.24 61.743 47.68 61.343 46.96C60.943 46.224 60.743 45.384 60.743 44.44V36.784H63.119V44.032C63.119 44.992 63.391 45.752 63.935 46.312C64.495 46.872 65.239 47.152 66.167 47.152C66.823 47.152 67.407 47.016 67.919 46.744C68.431 46.456 68.847 46.056 69.167 45.544V36.784H71.567V49H69.167V47.752C68.223 48.744 67.007 49.24 65.519 49.24ZM74.4082 49V36.784H76.8082V38.344C77.1922 37.768 77.6642 37.32 78.2242 37C78.8002 36.664 79.4482 36.496 80.1682 36.496C80.6642 36.512 81.0722 36.584 81.3922 36.712V38.872C81.1682 38.776 80.9362 38.712 80.6962 38.68C80.4562 38.632 80.2162 38.608 79.9762 38.608C79.2722 38.608 78.6482 38.8 78.1042 39.184C77.5602 39.552 77.1282 40.096 76.8082 40.816V49H74.4082ZM88.6181 49V32.2H95.8901C96.9941 32.2 97.9541 32.384 98.7701 32.752C99.5861 33.12 100.218 33.64 100.666 34.312C101.114 34.968 101.338 35.744 101.338 36.64C101.338 37.456 101.13 38.176 100.714 38.8C100.298 39.424 99.7141 39.92 98.9621 40.288C99.9061 40.624 100.642 41.136 101.17 41.824C101.714 42.496 101.986 43.288 101.986 44.2C101.986 45.176 101.746 46.024 101.266 46.744C100.786 47.464 100.114 48.024 99.2501 48.424C98.3861 48.808 97.3701 49 96.2021 49H88.6181ZM91.1381 39.328H95.7461C96.6901 39.328 97.4421 39.104 98.0021 38.656C98.5621 38.208 98.8421 37.6 98.8421 36.832C98.8421 36.064 98.5621 35.456 98.0021 35.008C97.4421 34.56 96.6901 34.336 95.7461 34.336H91.1381V39.328ZM91.1381 46.864H96.0101C97.0661 46.864 97.8981 46.616 98.5061 46.12C99.1301 45.624 99.4421 44.952 99.4421 44.104C99.4421 43.272 99.1301 42.608 98.5061 42.112C97.8981 41.6 97.0661 41.344 96.0101 41.344H91.1381V46.864ZM108.925 49.24C107.981 49.24 107.149 49.04 106.429 48.64C105.709 48.24 105.149 47.68 104.749 46.96C104.349 46.224 104.149 45.384 104.149 44.44V36.784H106.525V44.032C106.525 44.992 106.797 45.752 107.341 46.312C107.901 46.872 108.645 47.152 109.573 47.152C110.229 47.152 110.813 47.016 111.325 46.744C111.837 46.456 112.253 46.056 112.573 45.544V36.784H114.973V49H112.573V47.752C111.629 48.744 110.413 49.24 108.925 49.24ZM122.014 49.24C120.958 49.24 119.966 49.088 119.038 48.784C118.126 48.464 117.334 48.016 116.662 47.44L117.982 45.856C118.606 46.352 119.246 46.736 119.902 47.008C120.574 47.264 121.254 47.392 121.942 47.392C122.806 47.392 123.51 47.224 124.054 46.888C124.598 46.552 124.87 46.112 124.87 45.568C124.87 45.12 124.71 44.768 124.39 44.512C124.07 44.256 123.574 44.08 122.902 43.984L120.694 43.672C119.478 43.496 118.566 43.12 117.958 42.544C117.35 41.968 117.046 41.2 117.046 40.24C117.046 39.504 117.246 38.864 117.646 38.32C118.046 37.76 118.606 37.328 119.326 37.024C120.046 36.704 120.886 36.544 121.846 36.544C122.726 36.544 123.574 36.672 124.39 36.928C125.206 37.184 125.99 37.584 126.742 38.128L125.518 39.712C124.846 39.264 124.19 38.936 123.55 38.728C122.926 38.52 122.294 38.416 121.654 38.416C120.918 38.416 120.326 38.576 119.878 38.896C119.43 39.2 119.206 39.6 119.206 40.096C119.206 40.544 119.358 40.896 119.662 41.152C119.982 41.392 120.502 41.56 121.222 41.656L123.43 41.968C124.646 42.144 125.566 42.52 126.19 43.096C126.814 43.656 127.126 44.416 127.126 45.376C127.126 46.112 126.902 46.776 126.454 47.368C126.006 47.944 125.398 48.4 124.63 48.736C123.862 49.072 122.99 49.24 122.014 49.24ZM128.971 49V36.784H131.371V49H128.971ZM130.171 34.816C129.771 34.816 129.427 34.672 129.139 34.384C128.851 34.08 128.707 33.728 128.707 33.328C128.707 32.912 128.851 32.568 129.139 32.296C129.427 32.008 129.771 31.864 130.171 31.864C130.587 31.864 130.939 32.008 131.227 32.296C131.515 32.568 131.659 32.912 131.659 33.328C131.659 33.728 131.515 34.08 131.227 34.384C130.939 34.672 130.587 34.816 130.171 34.816ZM134.197 49V36.784H136.597V38.032C137.541 37.04 138.765 36.544 140.269 36.544C141.213 36.544 142.037 36.744 142.741 37.144C143.461 37.544 144.021 38.104 144.421 38.824C144.837 39.544 145.045 40.376 145.045 41.32V49H142.645V41.728C142.645 40.768 142.373 40.016 141.829 39.472C141.301 38.912 140.557 38.632 139.597 38.632C138.957 38.632 138.381 38.768 137.869 39.04C137.357 39.312 136.933 39.704 136.597 40.216V49H134.197ZM153.67 49.216C152.47 49.216 151.382 48.936 150.406 48.376C149.446 47.816 148.678 47.056 148.102 46.096C147.542 45.136 147.262 44.064 147.262 42.88C147.262 41.712 147.534 40.656 148.078 39.712C148.622 38.752 149.358 37.992 150.286 37.432C151.214 36.856 152.246 36.568 153.382 36.568C154.518 36.568 155.526 36.856 156.406 37.432C157.286 37.992 157.982 38.76 158.494 39.736C159.022 40.696 159.286 41.784 159.286 43V43.672H149.662C149.79 44.344 150.038 44.944 150.406 45.472C150.79 46 151.27 46.416 151.846 46.72C152.438 47.024 153.078 47.176 153.766 47.176C154.358 47.176 154.926 47.088 155.47 46.912C156.03 46.72 156.494 46.448 156.862 46.096L158.398 47.608C157.678 48.152 156.934 48.56 156.166 48.832C155.414 49.088 154.582 49.216 153.67 49.216ZM149.686 41.872H156.91C156.814 41.232 156.59 40.672 156.238 40.192C155.902 39.696 155.478 39.312 154.966 39.04C154.47 38.752 153.926 38.608 153.334 38.608C152.726 38.608 152.166 38.744 151.654 39.016C151.142 39.288 150.71 39.672 150.358 40.168C150.022 40.648 149.798 41.216 149.686 41.872ZM165.889 49.24C164.833 49.24 163.841 49.088 162.913 48.784C162.001 48.464 161.209 48.016 160.537 47.44L161.857 45.856C162.481 46.352 163.121 46.736 163.777 47.008C164.449 47.264 165.129 47.392 165.817 47.392C166.681 47.392 167.385 47.224 167.929 46.888C168.473 46.552 168.745 46.112 168.745 45.568C168.745 45.12 168.585 44.768 168.265 44.512C167.945 44.256 167.449 44.08 166.777 43.984L164.569 43.672C163.353 43.496 162.441 43.12 161.833 42.544C161.225 41.968 160.921 41.2 160.921 40.24C160.921 39.504 161.121 38.864 161.521 38.32C161.921 37.76 162.481 37.328 163.201 37.024C163.921 36.704 164.761 36.544 165.721 36.544C166.601 36.544 167.449 36.672 168.265 36.928C169.081 37.184 169.865 37.584 170.617 38.128L169.393 39.712C168.721 39.264 168.065 38.936 167.425 38.728C166.801 38.52 166.169 38.416 165.529 38.416C164.793 38.416 164.201 38.576 163.753 38.896C163.305 39.2 163.081 39.6 163.081 40.096C163.081 40.544 163.233 40.896 163.537 41.152C163.857 41.392 164.377 41.56 165.097 41.656L167.305 41.968C168.521 42.144 169.441 42.52 170.065 43.096C170.689 43.656 171.001 44.416 171.001 45.376C171.001 46.112 170.777 46.776 170.329 47.368C169.881 47.944 169.273 48.4 168.505 48.736C167.737 49.072 166.865 49.24 165.889 49.24ZM177.046 49.24C175.99 49.24 174.998 49.088 174.07 48.784C173.158 48.464 172.366 48.016 171.694 47.44L173.014 45.856C173.638 46.352 174.278 46.736 174.934 47.008C175.606 47.264 176.286 47.392 176.974 47.392C177.838 47.392 178.542 47.224 179.086 46.888C179.63 46.552 179.902 46.112 179.902 45.568C179.902 45.12 179.742 44.768 179.422 44.512C179.102 44.256 178.606 44.08 177.934 43.984L175.726 43.672C174.51 43.496 173.598 43.12 172.99 42.544C172.382 41.968 172.078 41.2 172.078 40.24C172.078 39.504 172.278 38.864 172.678 38.32C173.078 37.76 173.638 37.328 174.358 37.024C175.078 36.704 175.918 36.544 176.878 36.544C177.758 36.544 178.606 36.672 179.422 36.928C180.238 37.184 181.022 37.584 181.774 38.128L180.55 39.712C179.878 39.264 179.222 38.936 178.582 38.728C177.958 38.52 177.326 38.416 176.686 38.416C175.95 38.416 175.358 38.576 174.91 38.896C174.462 39.2 174.238 39.6 174.238 40.096C174.238 40.544 174.39 40.896 174.694 41.152C175.014 41.392 175.534 41.56 176.254 41.656L178.462 41.968C179.678 42.144 180.598 42.52 181.222 43.096C181.846 43.656 182.158 44.416 182.158 45.376C182.158 46.112 181.934 46.776 181.486 47.368C181.038 47.944 180.43 48.4 179.662 48.736C178.894 49.072 178.022 49.24 177.046 49.24ZM183.549 37.096L185.037 31.504H187.581L185.373 37.096H183.549ZM200.642 49.24C199.298 49.24 198.002 48.976 196.754 48.448C195.506 47.92 194.402 47.176 193.442 46.216L194.978 44.44C195.89 45.336 196.818 46 197.762 46.432C198.722 46.864 199.722 47.08 200.762 47.08C201.578 47.08 202.29 46.968 202.898 46.744C203.522 46.504 204.002 46.168 204.338 45.736C204.674 45.304 204.842 44.816 204.842 44.272C204.842 43.52 204.578 42.944 204.05 42.544C203.522 42.144 202.65 41.84 201.434 41.632L198.626 41.176C197.09 40.904 195.938 40.408 195.17 39.688C194.418 38.968 194.042 38.008 194.042 36.808C194.042 35.848 194.298 35.008 194.81 34.288C195.322 33.552 196.042 32.984 196.97 32.584C197.914 32.184 199.002 31.984 200.234 31.984C201.45 31.984 202.642 32.184 203.81 32.584C204.994 32.968 206.058 33.528 207.002 34.264L205.61 36.184C203.802 34.808 201.97 34.12 200.114 34.12C199.378 34.12 198.738 34.224 198.194 34.432C197.65 34.64 197.226 34.936 196.922 35.32C196.618 35.688 196.466 36.12 196.466 36.616C196.466 37.304 196.698 37.832 197.162 38.2C197.626 38.552 198.394 38.808 199.466 38.968L202.178 39.424C203.954 39.712 205.258 40.232 206.09 40.984C206.922 41.736 207.338 42.768 207.338 44.08C207.338 45.104 207.058 46.008 206.498 46.792C205.938 47.56 205.154 48.16 204.146 48.592C203.138 49.024 201.97 49.24 200.642 49.24ZM214.265 49.216C213.081 49.216 212.177 48.944 211.553 48.4C210.929 47.84 210.617 47.032 210.617 45.976V38.8H208.025V36.784H210.617V33.664L212.993 33.088V36.784H216.593V38.8H212.993V45.424C212.993 46.048 213.129 46.496 213.401 46.768C213.689 47.024 214.153 47.152 214.793 47.152C215.129 47.152 215.425 47.128 215.681 47.08C215.953 47.032 216.241 46.96 216.545 46.864V48.88C216.225 48.992 215.849 49.072 215.417 49.12C215.001 49.184 214.617 49.216 214.265 49.216ZM222.225 49.216C221.345 49.216 220.569 49.064 219.897 48.76C219.225 48.44 218.697 48 218.313 47.44C217.929 46.88 217.737 46.232 217.737 45.496C217.737 44.344 218.177 43.44 219.057 42.784C219.937 42.112 221.145 41.776 222.681 41.776C223.881 41.776 224.993 42.008 226.017 42.472V41.176C226.017 40.296 225.761 39.64 225.249 39.208C224.753 38.776 224.017 38.56 223.041 38.56C222.481 38.56 221.897 38.648 221.289 38.824C220.681 38.984 220.001 39.24 219.249 39.592L218.361 37.792C219.289 37.36 220.153 37.048 220.953 36.856C221.753 36.648 222.561 36.544 223.377 36.544C224.961 36.544 226.185 36.92 227.049 37.672C227.929 38.424 228.369 39.496 228.369 40.888V49H226.017V47.944C225.473 48.376 224.889 48.696 224.265 48.904C223.641 49.112 222.961 49.216 222.225 49.216ZM220.041 45.448C220.041 46.04 220.289 46.52 220.785 46.888C221.297 47.256 221.961 47.44 222.777 47.44C223.417 47.44 224.001 47.344 224.529 47.152C225.073 46.96 225.569 46.664 226.017 46.264V44.2C225.553 43.928 225.065 43.736 224.553 43.624C224.057 43.496 223.497 43.432 222.873 43.432C221.993 43.432 221.297 43.616 220.785 43.984C220.289 44.336 220.041 44.824 220.041 45.448ZM236.015 49.216C234.831 49.216 233.927 48.944 233.303 48.4C232.679 47.84 232.367 47.032 232.367 45.976V38.8H229.775V36.784H232.367V33.664L234.743 33.088V36.784H238.343V38.8H234.743V45.424C234.743 46.048 234.879 46.496 235.151 46.768C235.439 47.024 235.903 47.152 236.543 47.152C236.879 47.152 237.175 47.128 237.431 47.08C237.703 47.032 237.991 46.96 238.295 46.864V48.88C237.975 48.992 237.599 49.072 237.167 49.12C236.751 49.184 236.367 49.216 236.015 49.216ZM244.546 49.24C243.49 49.24 242.498 49.088 241.57 48.784C240.658 48.464 239.866 48.016 239.194 47.44L240.514 45.856C241.138 46.352 241.778 46.736 242.434 47.008C243.106 47.264 243.786 47.392 244.474 47.392C245.338 47.392 246.042 47.224 246.586 46.888C247.13 46.552 247.402 46.112 247.402 45.568C247.402 45.12 247.242 44.768 246.922 44.512C246.602 44.256 246.106 44.08 245.434 43.984L243.226 43.672C242.01 43.496 241.098 43.12 240.49 42.544C239.882 41.968 239.578 41.2 239.578 40.24C239.578 39.504 239.778 38.864 240.178 38.32C240.578 37.76 241.138 37.328 241.858 37.024C242.578 36.704 243.418 36.544 244.378 36.544C245.258 36.544 246.106 36.672 246.922 36.928C247.738 37.184 248.522 37.584 249.274 38.128L248.05 39.712C247.378 39.264 246.722 38.936 246.082 38.728C245.458 38.52 244.826 38.416 244.186 38.416C243.45 38.416 242.858 38.576 242.41 38.896C241.962 39.2 241.738 39.6 241.738 40.096C241.738 40.544 241.89 40.896 242.194 41.152C242.514 41.392 243.034 41.56 243.754 41.656L245.962 41.968C247.178 42.144 248.098 42.52 248.722 43.096C249.346 43.656 249.658 44.416 249.658 45.376C249.658 46.112 249.434 46.776 248.986 47.368C248.538 47.944 247.93 48.4 247.162 48.736C246.394 49.072 245.522 49.24 244.546 49.24Z" fill="#FAFAFA"/>
<path d="M34.416 290V280.448L32.4 281.296V279.888L34.992 278.8H36V290H34.416ZM38.1673 290V278.8H39.8473V283.984L45.2713 278.8H47.3993L41.5753 284.224L47.5753 290H45.2713L39.8473 284.688V290H38.1673Z" fill="#FAFAFA" fill-opacity="0.5"/>
<path d="M32.784 241V239.88L37.328 235.048C37.6373 234.728 37.8773 234.44 38.048 234.184C38.2187 233.928 38.336 233.688 38.4 233.464C38.4747 233.229 38.512 232.984 38.512 232.728C38.512 232.227 38.3093 231.811 37.904 231.48C37.4987 231.149 36.9867 230.984 36.368 230.984C35.856 230.984 35.376 231.085 34.928 231.288C34.48 231.491 33.984 231.843 33.44 232.344L32.576 231.288C33.1733 230.733 33.7867 230.317 34.416 230.04C35.056 229.763 35.7173 229.624 36.4 229.624C37.1147 229.624 37.744 229.752 38.288 230.008C38.832 230.264 39.2533 230.621 39.552 231.08C39.8613 231.528 40.016 232.045 40.016 232.632C40.016 233.005 39.968 233.352 39.872 233.672C39.776 233.981 39.6107 234.312 39.376 234.664C39.1413 235.005 38.8107 235.4 38.384 235.848L34.736 239.688L40.24 239.672V241H32.784ZM42.011 241V229.8H43.691V234.984L49.115 229.8H51.243L45.419 235.224L51.419 241H49.115L43.691 235.688V241H42.011Z" fill="#FAFAFA" fill-opacity="0.5"/>
<path d="M36.64 192.176C35.84 192.176 35.088 192.037 34.384 191.76C33.6907 191.472 33.088 191.061 32.576 190.528L33.616 189.536C34.064 190.005 34.5173 190.341 34.976 190.544C35.4453 190.736 35.9947 190.832 36.624 190.832C37.1253 190.832 37.568 190.747 37.952 190.576C38.3467 190.405 38.6507 190.171 38.864 189.872C39.0773 189.573 39.184 189.227 39.184 188.832C39.184 188.469 39.088 188.149 38.896 187.872C38.7147 187.584 38.464 187.365 38.144 187.216C37.8347 187.056 37.4667 186.976 37.04 186.976H35.68V185.68H36.928C37.4933 185.68 37.9467 185.515 38.288 185.184C38.6293 184.853 38.8 184.421 38.8 183.888C38.8 183.536 38.704 183.216 38.512 182.928C38.32 182.64 38.0533 182.416 37.712 182.256C37.3813 182.085 37.0027 182 36.576 182C36.0107 182 35.5093 182.101 35.072 182.304C34.6453 182.496 34.2027 182.837 33.744 183.328L32.704 182.336C33.216 181.781 33.808 181.36 34.48 181.072C35.152 180.773 35.8613 180.624 36.608 180.624C37.3333 180.624 37.9733 180.757 38.528 181.024C39.0933 181.291 39.536 181.664 39.856 182.144C40.1867 182.613 40.352 183.147 40.352 183.744C40.352 184.331 40.1547 184.859 39.76 185.328C39.376 185.787 38.8693 186.107 38.24 186.288C38.9973 186.448 39.6 186.768 40.048 187.248C40.496 187.717 40.72 188.272 40.72 188.912C40.72 189.541 40.544 190.101 40.192 190.592C39.8507 191.083 39.3707 191.472 38.752 191.76C38.1333 192.037 37.4293 192.176 36.64 192.176ZM42.6673 192V180.8H44.3473V185.984L49.7713 180.8H51.8993L46.0753 186.224L52.0753 192H49.7713L44.3473 186.688V192H42.6673Z" fill="white" fill-opacity="0.5"/>
<path d="M38.784 143V140.152H32.432V138.888L38.592 131.8H40.368V138.808H41.728V140.152H40.368V143H38.784ZM34.32 138.808H38.784V133.672L34.32 138.808ZM43.386 143V131.8H45.066V136.984L50.49 131.8H52.618L46.794 137.224L52.794 143H50.49L45.066 137.688V143H43.386Z" fill="#FAFAFA" fill-opacity="0.5"/>
<path d="M37.48 94.176C35.9867 94.176 34.6907 93.6693 33.592 92.656L34.536 91.6C35.016 92.0373 35.4907 92.3573 35.96 92.56C36.44 92.752 36.9627 92.848 37.528 92.848C38.04 92.848 38.4827 92.752 38.856 92.56C39.2293 92.3573 39.5227 92.08 39.736 91.728C39.9493 91.3653 40.056 90.9547 40.056 90.496C40.056 89.824 39.816 89.28 39.336 88.864C38.8667 88.448 38.2533 88.24 37.496 88.24C37.112 88.24 36.728 88.2933 36.344 88.4C35.9707 88.496 35.5813 88.6453 35.176 88.848L34.104 88.528L34.36 82.8H41.016V84.128H35.672L35.512 87.6C35.9173 87.3973 36.312 87.2533 36.696 87.168C37.08 87.072 37.4853 87.024 37.912 87.024C38.6587 87.024 39.304 87.168 39.848 87.456C40.4027 87.7333 40.8347 88.128 41.144 88.64C41.4533 89.152 41.608 89.744 41.608 90.416C41.608 91.1627 41.432 91.8187 41.08 92.384C40.7387 92.9387 40.2587 93.376 39.64 93.696C39.0213 94.016 38.3013 94.176 37.48 94.176ZM43.4485 94V82.8H45.1285V87.984L50.5525 82.8H52.6805L46.8565 88.224L52.8565 94H50.5525L45.1285 88.688V94H43.4485Z" fill="#FAFAFA" fill-opacity="0.5"/>
<path d="M75.416 319V309.448L73.4 310.296V308.888L75.992 307.8H77V319H75.416ZM79.1673 319V307.8H80.8473V312.984L86.2713 307.8H88.3993L82.5753 313.224L88.5753 319H86.2713L80.8473 313.688V319H79.1673Z" fill="#FAFAFA" fill-opacity="0.15"/>
<path d="M184.64 319.176C183.84 319.176 183.088 319.037 182.384 318.76C181.691 318.472 181.088 318.061 180.576 317.528L181.616 316.536C182.064 317.005 182.517 317.341 182.976 317.544C183.445 317.736 183.995 317.832 184.624 317.832C185.125 317.832 185.568 317.747 185.952 317.576C186.347 317.405 186.651 317.171 186.864 316.872C187.077 316.573 187.184 316.227 187.184 315.832C187.184 315.469 187.088 315.149 186.896 314.872C186.715 314.584 186.464 314.365 186.144 314.216C185.835 314.056 185.467 313.976 185.04 313.976H183.68V312.68H184.928C185.493 312.68 185.947 312.515 186.288 312.184C186.629 311.853 186.8 311.421 186.8 310.888C186.8 310.536 186.704 310.216 186.512 309.928C186.32 309.64 186.053 309.416 185.712 309.256C185.381 309.085 185.003 309 184.576 309C184.011 309 183.509 309.101 183.072 309.304C182.645 309.496 182.203 309.837 181.744 310.328L180.704 309.336C181.216 308.781 181.808 308.36 182.48 308.072C183.152 307.773 183.861 307.624 184.608 307.624C185.333 307.624 185.973 307.757 186.528 308.024C187.093 308.291 187.536 308.664 187.856 309.144C188.187 309.613 188.352 310.147 188.352 310.744C188.352 311.331 188.155 311.859 187.76 312.328C187.376 312.787 186.869 313.107 186.24 313.288C186.997 313.448 187.6 313.768 188.048 314.248C188.496 314.717 188.72 315.272 188.72 315.912C188.72 316.541 188.544 317.101 188.192 317.592C187.851 318.083 187.371 318.472 186.752 318.76C186.133 319.037 185.429 319.176 184.64 319.176ZM190.667 319V307.8H192.347V312.984L197.771 307.8H199.899L194.075 313.224L200.075 319H197.771L192.347 313.688V319H190.667Z" fill="#FAFAFA" fill-opacity="0.15"/>
<path d="M296.36 319.16C295.464 319.16 294.675 318.931 293.992 318.472C293.309 318.013 292.776 317.379 292.392 316.568C292.008 315.747 291.816 314.797 291.816 313.72C291.816 312.493 292.029 311.427 292.456 310.52C292.883 309.603 293.48 308.893 294.248 308.392C295.027 307.88 295.933 307.624 296.968 307.624C297.48 307.624 297.987 307.704 298.488 307.864C299 308.013 299.443 308.232 299.816 308.52L299 309.656C298.669 309.443 298.323 309.283 297.96 309.176C297.608 309.069 297.235 309.016 296.84 309.016C296.115 309.016 295.491 309.203 294.968 309.576C294.456 309.939 294.061 310.467 293.784 311.16C293.507 311.853 293.363 312.691 293.352 313.672C293.747 313.149 294.221 312.744 294.776 312.456C295.331 312.157 295.907 312.008 296.504 312.008C297.24 312.008 297.891 312.157 298.456 312.456C299.021 312.744 299.464 313.149 299.784 313.672C300.104 314.195 300.264 314.792 300.264 315.464C300.264 316.168 300.093 316.803 299.752 317.368C299.411 317.923 298.947 318.36 298.36 318.68C297.773 319 297.107 319.16 296.36 319.16ZM296.28 313.24C295.725 313.24 295.197 313.368 294.696 313.624C294.205 313.88 293.779 314.232 293.416 314.68C293.512 315.309 293.688 315.864 293.944 316.344C294.211 316.813 294.547 317.181 294.952 317.448C295.357 317.704 295.811 317.832 296.312 317.832C296.781 317.832 297.197 317.731 297.56 317.528C297.923 317.325 298.205 317.048 298.408 316.696C298.621 316.344 298.728 315.944 298.728 315.496C298.728 315.059 298.621 314.669 298.408 314.328C298.205 313.987 297.917 313.72 297.544 313.528C297.181 313.336 296.76 313.24 296.28 313.24ZM302.089 319V307.8H303.769V312.984L309.193 307.8H311.321L305.497 313.224L311.497 319H309.193L303.769 313.688V319H302.089Z" fill="#FAFAFA" fill-opacity="0.15"/>
<path d="M406.592 307.624C407.488 307.624 408.277 307.859 408.96 308.328C409.643 308.787 410.176 309.421 410.56 310.232C410.944 311.043 411.136 311.987 411.136 313.064C411.136 314.291 410.923 315.363 410.496 316.28C410.069 317.187 409.467 317.896 408.688 318.408C407.92 318.909 407.019 319.16 405.984 319.16C405.483 319.16 404.976 319.08 404.464 318.92C403.952 318.76 403.509 318.547 403.136 318.28L403.952 317.128C404.283 317.341 404.629 317.507 404.992 317.624C405.355 317.731 405.728 317.784 406.112 317.784C406.837 317.784 407.456 317.597 407.968 317.224C408.491 316.851 408.891 316.317 409.168 315.624C409.445 314.92 409.589 314.088 409.6 313.128C409.205 313.651 408.731 314.061 408.176 314.36C407.621 314.648 407.045 314.792 406.448 314.792C405.712 314.792 405.061 314.643 404.496 314.344C403.931 314.035 403.488 313.624 403.168 313.112C402.848 312.589 402.688 311.992 402.688 311.32C402.688 310.605 402.859 309.971 403.2 309.416C403.541 308.861 404.005 308.424 404.592 308.104C405.179 307.784 405.845 307.624 406.592 307.624ZM406.672 313.56C407.227 313.56 407.749 313.432 408.24 313.176C408.741 312.909 409.173 312.552 409.536 312.104C409.451 311.464 409.275 310.909 409.008 310.44C408.752 309.971 408.421 309.608 408.016 309.352C407.611 309.085 407.152 308.952 406.64 308.952C406.181 308.952 405.765 309.053 405.392 309.256C405.029 309.459 404.741 309.736 404.528 310.088C404.325 310.44 404.224 310.84 404.224 311.288C404.224 311.725 404.325 312.12 404.528 312.472C404.741 312.813 405.035 313.08 405.408 313.272C405.781 313.464 406.203 313.56 406.672 313.56ZM413.089 319V307.8H414.769V312.984L420.193 307.8H422.321L416.497 313.224L422.497 319H420.193L414.769 313.688V319H413.089Z" fill="#FAFAFA" fill-opacity="0.15"/>
<path d="M516.416 319V309.448L514.4 310.296V308.888L516.992 307.8H518V319H516.416ZM519.815 319V317.88L524.359 313.048C524.669 312.728 524.909 312.44 525.079 312.184C525.25 311.928 525.367 311.688 525.431 311.464C525.506 311.229 525.543 310.984 525.543 310.728C525.543 310.227 525.341 309.811 524.935 309.48C524.53 309.149 524.018 308.984 523.399 308.984C522.887 308.984 522.407 309.085 521.959 309.288C521.511 309.491 521.015 309.843 520.471 310.344L519.607 309.288C520.205 308.733 520.818 308.317 521.447 308.04C522.087 307.763 522.749 307.624 523.431 307.624C524.146 307.624 524.775 307.752 525.319 308.008C525.863 308.264 526.285 308.621 526.583 309.08C526.893 309.528 527.047 310.045 527.047 310.632C527.047 311.005 526.999 311.352 526.903 311.672C526.807 311.981 526.642 312.312 526.407 312.664C526.173 313.005 525.842 313.4 525.415 313.848L521.767 317.688L527.271 317.672V319H519.815ZM529.042 319V307.8H530.722V312.984L536.146 307.8H538.274L532.45 313.224L538.45 319H536.146L530.722 313.688V319H529.042Z" fill="#FAFAFA" fill-opacity="0.15"/>
<path d="M74.607 279.444C74.2997 280.213 74.6744 281.086 75.4437 281.393C76.2131 281.7 77.0858 281.326 77.393 280.556L74.607 279.444ZM254.999 192.64L254.265 193.948L254.999 192.64ZM77.393 280.556C87.5399 255.147 108.601 220.366 138.722 198.531C153.763 187.628 171.026 179.978 190.301 178.29C209.566 176.603 230.951 180.862 254.265 193.948L255.733 191.332C231.957 177.987 209.975 173.556 190.04 175.302C170.115 177.046 152.344 184.95 136.961 196.102C106.234 218.376 84.885 253.706 74.607 279.444L77.393 280.556ZM254.265 193.948C313.848 227.393 369.042 208.6 411.132 173.776C453.157 139.005 482.41 88.0548 490.454 56.3691L487.546 55.6309C479.668 86.665 450.783 137.075 409.219 171.464C367.72 205.8 313.874 223.967 255.733 191.332L254.265 193.948Z" fill="#A7F3D0"/>
</svg>
