<svg width="16" height="16" viewBox="0 0 16 16" fill="none" xmlns="http://www.w3.org/2000/svg">
<rect width="16" height="16" fill="#020617"/>
<path d="M2.01878 11L4.32278 5.4H5.65878L7.93878 11H6.68278L6.11478 9.528H3.80278L3.22678 11H2.01878ZM4.16278 8.6H5.76278L4.96278 6.536L4.16278 8.6ZM10.8537 11.088C10.4377 11.088 10.051 11.016 9.69366 10.872C9.33632 10.7227 9.02166 10.5173 8.74966 10.256C8.47766 9.98933 8.26432 9.68267 8.10966 9.336C7.96032 8.984 7.88566 8.60533 7.88566 8.2C7.88566 7.79467 7.96032 7.41867 8.10966 7.072C8.26432 6.72 8.47499 6.41333 8.74166 6.152C9.00832 5.88533 9.32032 5.68 9.67766 5.536C10.0403 5.38667 10.427 5.312 10.8377 5.312C11.3017 5.312 11.739 5.40533 12.1497 5.592C12.5603 5.77333 12.899 6.02933 13.1657 6.36L12.3577 7.104C12.1657 6.864 11.939 6.68267 11.6777 6.56C11.4163 6.43733 11.1363 6.376 10.8377 6.376C10.587 6.376 10.355 6.424 10.1417 6.52C9.92832 6.61067 9.74166 6.73867 9.58166 6.904C9.42166 7.064 9.29632 7.256 9.20566 7.48C9.12032 7.69867 9.07766 7.93867 9.07766 8.2C9.07766 8.46133 9.12299 8.704 9.21366 8.928C9.30432 9.152 9.42966 9.34667 9.58966 9.512C9.75499 9.672 9.94432 9.8 10.1577 9.896C10.3763 9.98667 10.6137 10.032 10.8697 10.032C11.1363 10.032 11.3763 9.984 11.5897 9.888C11.803 9.78667 11.9817 9.648 12.1257 9.472C12.275 9.29067 12.3737 9.088 12.4217 8.864H10.7657V7.856H13.6617V8.208C13.6617 8.624 13.5897 9.008 13.4457 9.36C13.307 9.70667 13.1123 10.0107 12.8617 10.272C12.611 10.528 12.315 10.728 11.9737 10.872C11.6323 11.016 11.259 11.088 10.8537 11.088Z" fill="white"/>
</svg>
