<svg width="16" height="16" viewBox="0 0 16 16" fill="none" xmlns="http://www.w3.org/2000/svg">
<rect width="16" height="16" fill="#020617"/>
<path d="M1.05784 11L3.36184 5.4H4.69784L6.97784 11H5.72184L5.15384 9.528H2.84184L2.26584 11H1.05784ZM3.20184 8.6H4.80184L4.00184 6.536L3.20184 8.6ZM11.8146 11.088C11.3986 11.088 11.0119 11.016 10.6546 10.872C10.2973 10.7227 9.98259 10.5173 9.71059 10.256C9.43859 9.98933 9.22526 9.68267 9.07059 9.336C8.92126 8.984 8.84659 8.60533 8.84659 8.2C8.84659 7.79467 8.92126 7.41867 9.07059 7.072C9.22526 6.72 9.43593 6.41333 9.70259 6.152C9.96926 5.88533 10.2813 5.68 10.6386 5.536C11.0013 5.38667 11.3879 5.312 11.7986 5.312C12.2626 5.312 12.6999 5.40533 13.1106 5.592C13.5213 5.77333 13.8599 6.02933 14.1266 6.36L13.3186 7.104C13.1266 6.864 12.8999 6.68267 12.6386 6.56C12.3773 6.43733 12.0973 6.376 11.7986 6.376C11.5479 6.376 11.3159 6.424 11.1026 6.52C10.8893 6.61067 10.7026 6.73867 10.5426 6.904C10.3826 7.064 10.2573 7.256 10.1666 7.48C10.0813 7.69867 10.0386 7.93867 10.0386 8.2C10.0386 8.46133 10.0839 8.704 10.1746 8.928C10.2653 9.152 10.3906 9.34667 10.5506 9.512C10.7159 9.672 10.9053 9.8 11.1186 9.896C11.3373 9.98667 11.5746 10.032 11.8306 10.032C12.0973 10.032 12.3373 9.984 12.5506 9.888C12.7639 9.78667 12.9426 9.648 13.0866 9.472C13.2359 9.29067 13.3346 9.088 13.3826 8.864H11.7266V7.856H14.6226V8.208C14.6226 8.624 14.5506 9.008 14.4066 9.36C14.2679 9.70667 14.0733 10.0107 13.8226 10.272C13.5719 10.528 13.2759 10.728 12.9346 10.872C12.5933 11.016 12.2199 11.088 11.8146 11.088Z" fill="white"/>
</svg>
