<svg width="875" height="805" viewBox="0 0 875 805" fill="none" xmlns="http://www.w3.org/2000/svg">
<path d="M315 55H855C866.046 55 875 63.9543 875 75V421C875 432.046 866.046 441 855 441H335C323.954 441 315 432.046 315 421V55Z" fill="#0F172A"/>
<path d="M368.76 126V110.712H368.712L362.064 114.6L361.44 112.92L368.76 108.48H370.728V126H368.76ZM361.656 170.248C363.448 168.856 364.952 167.632 366.168 166.576C367.384 165.52 368.352 164.576 369.072 163.744C369.808 162.912 370.336 162.152 370.656 161.464C370.992 160.76 371.16 160.08 371.16 159.424C371.16 157.136 369.888 155.992 367.344 155.992C365.552 155.992 363.728 156.632 361.872 157.912L361.224 156.232C363.064 154.904 365.192 154.24 367.608 154.24C369.416 154.24 370.784 154.664 371.712 155.512C372.656 156.344 373.128 157.576 373.128 159.208C373.128 159.976 372.976 160.752 372.672 161.536C372.368 162.304 371.88 163.12 371.208 163.984C370.552 164.848 369.68 165.792 368.592 166.816C367.504 167.824 366.176 168.952 364.608 170.2V170.248H373.32V172H361.656V170.248ZM366.6 218.24C364.696 218.24 362.936 217.8 361.32 216.92L361.8 215.288C362.344 215.56 362.864 215.792 363.36 215.984C363.872 216.16 364.376 216.296 364.872 216.392C365.384 216.472 365.904 216.512 366.432 216.512C367.968 216.512 369.16 216.176 370.008 215.504C370.856 214.816 371.28 213.864 371.28 212.648C371.28 211.816 371.072 211.136 370.656 210.608C370.256 210.08 369.632 209.688 368.784 209.432C367.952 209.176 366.872 209.048 365.544 209.048H363.528V207.32L369.84 202.256V202.208H361.488V200.48H372.6V202.208L365.976 207.464V207.512H367.224C369.16 207.512 370.648 207.96 371.688 208.856C372.728 209.736 373.248 211 373.248 212.648C373.248 214.408 372.656 215.784 371.472 216.776C370.304 217.752 368.68 218.24 366.6 218.24ZM369.648 264V260.544H360.24V258.792L369.648 246.48H371.568V258.792H374.88V260.544H371.568V264H369.648ZM362.592 258.792H369.648V249.648H369.6L362.592 258.744V258.792ZM366.864 310.24C365.888 310.24 365 310.136 364.2 309.928C363.4 309.72 362.624 309.408 361.872 308.992L362.448 307.336C363.184 307.752 363.896 308.056 364.584 308.248C365.272 308.424 366.008 308.512 366.792 308.512C368.392 308.512 369.632 308.16 370.512 307.456C371.408 306.736 371.856 305.728 371.856 304.432C371.856 303.216 371.472 302.288 370.704 301.648C369.952 300.992 368.88 300.664 367.488 300.664C366.8 300.664 366.208 300.752 365.712 300.928C365.216 301.104 364.728 301.408 364.248 301.84H362.4L363 292.48H372.984V294.208H364.728L364.344 299.824H364.392C364.92 299.536 365.448 299.328 365.976 299.2C366.52 299.056 367.12 298.984 367.776 298.984C369.68 298.984 371.16 299.472 372.216 300.448C373.272 301.408 373.8 302.752 373.8 304.48C373.8 306.304 373.192 307.72 371.976 308.728C370.776 309.736 369.072 310.24 366.864 310.24ZM367.584 356.24C366.24 356.24 365.08 355.992 364.104 355.496C363.144 355 362.4 354.256 361.872 353.264C361.36 352.272 361.104 351.056 361.104 349.616C361.104 347.408 361.512 345.488 362.328 343.856C363.144 342.224 364.32 340.928 365.856 339.968C367.392 339.008 369.24 338.44 371.4 338.264L371.736 339.848C369.592 340.04 367.84 340.624 366.48 341.6C365.12 342.56 364.152 343.904 363.576 345.632H363.624C364.2 345.184 364.888 344.848 365.688 344.624C366.504 344.384 367.4 344.264 368.376 344.264C370.136 344.264 371.52 344.792 372.528 345.848C373.552 346.888 374.064 348.328 374.064 350.168C374.064 351.432 373.808 352.52 373.296 353.432C372.784 354.328 372.04 355.024 371.064 355.52C370.104 356 368.944 356.24 367.584 356.24ZM367.584 354.512C369.04 354.512 370.168 354.128 370.968 353.36C371.768 352.592 372.168 351.544 372.168 350.216C372.168 348.856 371.8 347.8 371.064 347.048C370.328 346.28 369.288 345.896 367.944 345.896C366.92 345.896 366.04 346.064 365.304 346.4C364.568 346.736 364.008 347.216 363.624 347.84C363.24 348.448 363.048 349.184 363.048 350.048C363.048 350.816 363.2 351.544 363.504 352.232C363.808 352.904 364.296 353.456 364.968 353.888C365.64 354.304 366.512 354.512 367.584 354.512ZM364.128 402C364.672 400.464 365.224 399.008 365.784 397.632C366.36 396.256 366.952 394.936 367.56 393.672C368.184 392.408 368.84 391.168 369.528 389.952C370.216 388.736 370.952 387.512 371.736 386.28V386.232H361.32V384.48H373.872V386.232C373.232 387.24 372.624 388.224 372.048 389.184C371.488 390.144 370.952 391.112 370.44 392.088C369.944 393.048 369.456 394.048 368.976 395.088C368.512 396.112 368.056 397.2 367.608 398.352C367.16 399.488 366.696 400.704 366.216 402H364.128Z" fill="#FAFAFA" fill-opacity="0.25"/>
<path d="M406.602 126V114.52H402.738V112H406.602V109.62C406.602 107.903 407.022 106.615 407.862 105.756C408.72 104.879 409.99 104.44 411.67 104.44C412.192 104.44 412.696 104.477 413.182 104.552C413.667 104.627 414.106 104.729 414.498 104.86L414.134 107.38C413.462 107.156 412.799 107.044 412.146 107.044C411.231 107.044 410.587 107.259 410.214 107.688C409.84 108.099 409.654 108.817 409.654 109.844V112H414.414V114.52H409.654V126H406.602ZM421.969 126.28C420.214 126.28 418.926 125.804 418.105 124.852C417.283 123.9 416.873 122.416 416.873 120.4V111.44H419.897V119.84C419.897 121.184 420.121 122.173 420.569 122.808C421.035 123.443 421.782 123.76 422.809 123.76C423.574 123.76 424.246 123.601 424.825 123.284C425.422 122.967 425.889 122.537 426.225 121.996C426.561 121.436 426.729 120.811 426.729 120.12V111.44H429.753V126H426.869L426.841 124.264H426.785C426.206 124.936 425.525 125.44 424.741 125.776C423.957 126.112 423.033 126.28 421.969 126.28ZM434.054 126V111.44H436.938L436.966 113.176H437.022C437.601 112.504 438.301 112 439.122 111.664C439.944 111.328 440.896 111.16 441.978 111.16C443.77 111.16 445.086 111.636 445.926 112.588C446.785 113.54 447.214 115.024 447.214 117.04V126H444.19V117.6C444.19 116.256 443.938 115.267 443.434 114.632C442.949 113.997 442.184 113.68 441.138 113.68C440.354 113.68 439.654 113.839 439.038 114.156C438.422 114.473 437.937 114.903 437.582 115.444C437.246 115.985 437.078 116.611 437.078 117.32V126H434.054ZM457.921 126.28C456.278 126.28 454.869 125.981 453.693 125.384C452.517 124.787 451.612 123.928 450.977 122.808C450.361 121.669 450.053 120.307 450.053 118.72C450.053 117.133 450.361 115.78 450.977 114.66C451.612 113.521 452.517 112.653 453.693 112.056C454.869 111.459 456.278 111.16 457.921 111.16C458.742 111.16 459.517 111.244 460.245 111.412C460.973 111.561 461.682 111.823 462.373 112.196L461.841 114.632C461.206 114.296 460.581 114.053 459.965 113.904C459.349 113.755 458.733 113.68 458.117 113.68C456.53 113.68 455.298 114.119 454.421 114.996C453.562 115.873 453.133 117.115 453.133 118.72C453.133 120.307 453.562 121.548 454.421 122.444C455.298 123.321 456.53 123.76 458.117 123.76C458.733 123.76 459.349 123.685 459.965 123.536C460.581 123.387 461.206 123.144 461.841 122.808L462.373 125.244C461.682 125.599 460.973 125.86 460.245 126.028C459.517 126.196 458.742 126.28 457.921 126.28ZM472.432 126.28C470.752 126.28 469.539 125.935 468.792 125.244C468.064 124.535 467.7 123.387 467.7 121.8V113.96H464.34V111.44H467.7V106.68H470.752V111.44H475.82V113.96H470.752V120.96C470.752 121.949 470.92 122.64 471.256 123.032C471.592 123.424 472.189 123.62 473.048 123.62C473.477 123.62 473.907 123.583 474.336 123.508C474.784 123.433 475.185 123.331 475.54 123.2L475.82 125.776C475.223 125.963 474.644 126.093 474.084 126.168C473.543 126.243 472.992 126.28 472.432 126.28ZM479.587 108.64V105.56H482.667V108.64H479.587ZM479.587 126V111.44H482.667V126H479.587ZM493.427 126.28C491.112 126.28 489.32 125.627 488.051 124.32C486.781 122.995 486.147 121.128 486.147 118.72C486.147 116.312 486.781 114.455 488.051 113.148C489.32 111.823 491.112 111.16 493.427 111.16C495.741 111.16 497.533 111.823 498.803 113.148C500.072 114.455 500.707 116.312 500.707 118.72C500.707 121.128 500.072 122.995 498.803 124.32C497.533 125.627 495.741 126.28 493.427 126.28ZM493.427 123.76C494.808 123.76 495.863 123.331 496.591 122.472C497.319 121.613 497.683 120.363 497.683 118.72C497.683 117.077 497.319 115.827 496.591 114.968C495.863 114.109 494.808 113.68 493.427 113.68C492.064 113.68 491.009 114.109 490.263 114.968C489.535 115.827 489.171 117.077 489.171 118.72C489.171 120.363 489.535 121.613 490.263 122.472C491.009 123.331 492.064 123.76 493.427 123.76ZM503.945 126V111.44H506.829L506.857 113.176H506.913C507.492 112.504 508.192 112 509.013 111.664C509.834 111.328 510.786 111.16 511.869 111.16C513.661 111.16 514.977 111.636 515.817 112.588C516.676 113.54 517.105 115.024 517.105 117.04V126H514.081V117.6C514.081 116.256 513.829 115.267 513.325 114.632C512.84 113.997 512.074 113.68 511.029 113.68C510.245 113.68 509.545 113.839 508.929 114.156C508.313 114.473 507.828 114.903 507.473 115.444C507.137 115.985 506.969 116.611 506.969 117.32V126H503.945ZM684.686 129.08C683.379 127.363 682.381 125.459 681.69 123.368C680.999 121.277 680.654 119.075 680.654 116.76C680.654 114.427 680.999 112.215 681.69 110.124C682.381 108.033 683.379 106.139 684.686 104.44H687.682C686.375 106.288 685.405 108.22 684.77 110.236C684.135 112.233 683.818 114.408 683.818 116.76C683.818 119.112 684.135 121.296 684.77 123.312C685.405 125.309 686.375 127.232 687.682 129.08H684.686ZM701.836 129.08H698.84C700.165 127.232 701.136 125.309 701.752 123.312C702.386 121.296 702.704 119.112 702.704 116.76C702.704 114.408 702.386 112.233 701.752 110.236C701.136 108.22 700.165 106.288 698.84 104.44H701.836C703.161 106.139 704.16 108.033 704.832 110.124C705.522 112.215 705.868 114.427 705.868 116.76C705.868 119.075 705.522 121.277 704.832 123.368C704.16 125.459 703.161 127.363 701.836 129.08ZM725.817 129.08C724.398 129.08 723.362 128.735 722.709 128.044C722.074 127.372 721.757 126.271 721.757 124.74V121.52C721.757 120.4 721.561 119.56 721.169 119C720.777 118.44 720.18 118.16 719.377 118.16H718.117V115.36H719.377C720.18 115.36 720.777 115.08 721.169 114.52C721.561 113.96 721.757 113.12 721.757 112V108.78C721.757 107.231 722.074 106.12 722.709 105.448C723.362 104.776 724.398 104.44 725.817 104.44H728.757V107.1H727.357C726.629 107.1 726.069 107.184 725.677 107.352C725.304 107.501 725.042 107.791 724.893 108.22C724.762 108.631 724.697 109.237 724.697 110.04V112.336C724.697 113.512 724.492 114.455 724.081 115.164C723.67 115.855 723.026 116.377 722.149 116.732V116.788C723.026 117.143 723.67 117.675 724.081 118.384C724.492 119.075 724.697 120.008 724.697 121.184V123.48C724.697 124.283 724.762 124.899 724.893 125.328C725.042 125.739 725.304 126.019 725.677 126.168C726.069 126.336 726.629 126.42 727.357 126.42H728.757V129.08H725.817ZM430.035 172V157.44H432.947L432.975 160.24H433.031C433.498 159.587 434.058 159.036 434.711 158.588C435.383 158.121 436.13 157.767 436.951 157.524C437.791 157.281 438.659 157.16 439.555 157.16V159.82C438.36 159.82 437.268 160.053 436.279 160.52C435.308 160.987 434.534 161.612 433.955 162.396C433.376 163.18 433.087 164.048 433.087 165V172H430.035ZM448.05 172.28C445.53 172.28 443.589 171.627 442.226 170.32C440.863 169.013 440.182 167.147 440.182 164.72C440.182 162.368 440.807 160.52 442.058 159.176C443.327 157.832 445.063 157.16 447.266 157.16C449.394 157.16 451.027 157.795 452.166 159.064C453.323 160.333 453.902 162.135 453.902 164.468C453.902 164.711 453.893 164.981 453.874 165.28C453.874 165.579 453.865 165.812 453.846 165.98H441.862V163.6H451.55L451.074 164.328C451.074 162.741 450.757 161.565 450.122 160.8C449.487 160.016 448.535 159.624 447.266 159.624C445.922 159.624 444.895 160.035 444.186 160.856C443.495 161.677 443.15 162.872 443.15 164.44V165.28C443.15 166.792 443.542 167.921 444.326 168.668C445.129 169.396 446.333 169.76 447.938 169.76C448.722 169.76 449.553 169.685 450.43 169.536C451.326 169.368 452.119 169.153 452.81 168.892L453.202 171.328C452.493 171.627 451.681 171.86 450.766 172.028C449.87 172.196 448.965 172.28 448.05 172.28ZM462.971 172.28C461.291 172.28 460.078 171.935 459.331 171.244C458.603 170.535 458.239 169.387 458.239 167.8V159.96H454.879V157.44H458.239V152.68H461.291V157.44H466.359V159.96H461.291V166.96C461.291 167.949 461.459 168.64 461.795 169.032C462.131 169.424 462.728 169.62 463.587 169.62C464.016 169.62 464.446 169.583 464.875 169.508C465.323 169.433 465.724 169.331 466.079 169.2L466.359 171.776C465.762 171.963 465.183 172.093 464.623 172.168C464.082 172.243 463.531 172.28 462.971 172.28ZM474.578 172.28C472.823 172.28 471.535 171.804 470.714 170.852C469.893 169.9 469.482 168.416 469.482 166.4V157.44H472.506V165.84C472.506 167.184 472.73 168.173 473.178 168.808C473.645 169.443 474.391 169.76 475.418 169.76C476.183 169.76 476.855 169.601 477.434 169.284C478.031 168.967 478.498 168.537 478.834 167.996C479.17 167.436 479.338 166.811 479.338 166.12V157.44H482.362V172H479.478L479.45 170.264H479.394C478.815 170.936 478.134 171.44 477.35 171.776C476.566 172.112 475.642 172.28 474.578 172.28ZM486.664 172V157.44H489.576L489.604 160.24H489.66C490.126 159.587 490.686 159.036 491.34 158.588C492.012 158.121 492.758 157.767 493.58 157.524C494.42 157.281 495.288 157.16 496.184 157.16V159.82C494.989 159.82 493.897 160.053 492.908 160.52C491.937 160.987 491.162 161.612 490.584 162.396C490.005 163.18 489.716 164.048 489.716 165V172H486.664ZM498.859 172V157.44H501.743L501.771 159.176H501.827C502.406 158.504 503.106 158 503.927 157.664C504.748 157.328 505.7 157.16 506.783 157.16C508.575 157.16 509.891 157.636 510.731 158.588C511.59 159.54 512.019 161.024 512.019 163.04V172H508.995V163.6C508.995 162.256 508.743 161.267 508.239 160.632C507.754 159.997 506.988 159.68 505.943 159.68C505.159 159.68 504.459 159.839 503.843 160.156C503.227 160.473 502.742 160.903 502.387 161.444C502.051 161.985 501.883 162.611 501.883 163.32V172H498.859ZM528.389 175.08C527.083 173.363 526.084 171.459 525.393 169.368C524.703 167.277 524.357 165.075 524.357 162.76C524.357 160.427 524.703 158.215 525.393 156.124C526.084 154.033 527.083 152.139 528.389 150.44H531.385C530.079 152.288 529.108 154.22 528.473 156.236C527.839 158.233 527.521 160.408 527.521 162.76C527.521 165.112 527.839 167.296 528.473 169.312C529.108 171.309 530.079 173.232 531.385 175.08H528.389ZM529.187 218V211L522.327 197.56H528.487L532.099 206.24H532.155L535.767 197.56H541.927L535.067 211V218H529.187ZM547.135 218.28C544.596 218.28 542.655 217.636 541.311 216.348C539.967 215.06 539.295 213.184 539.295 210.72C539.295 208.256 539.967 206.38 541.311 205.092C542.655 203.804 544.596 203.16 547.135 203.16C549.692 203.16 551.634 203.804 552.959 205.092C554.303 206.38 554.975 208.256 554.975 210.72C554.975 213.184 554.303 215.06 552.959 216.348C551.634 217.636 549.692 218.28 547.135 218.28ZM547.135 214.36C547.956 214.36 548.554 214.071 548.927 213.492C549.3 212.895 549.487 211.971 549.487 210.72C549.487 209.451 549.3 208.527 548.927 207.948C548.554 207.369 547.956 207.08 547.135 207.08C546.332 207.08 545.735 207.369 545.343 207.948C544.97 208.527 544.783 209.451 544.783 210.72C544.783 211.971 544.97 212.895 545.343 213.492C545.735 214.071 546.332 214.36 547.135 214.36ZM561.566 218.28C559.923 218.28 558.719 217.813 557.954 216.88C557.188 215.928 556.806 214.435 556.806 212.4V203.44H562.294V211.28C562.294 212.195 562.406 212.848 562.63 213.24C562.872 213.613 563.264 213.8 563.806 213.8C564.216 213.8 564.571 213.716 564.87 213.548C565.187 213.38 565.43 213.147 565.598 212.848C565.784 212.549 565.878 212.213 565.878 211.84V203.44H571.366V218H566.158L566.102 216.32H566.046C565.411 217.011 564.739 217.515 564.03 217.832C563.32 218.131 562.499 218.28 561.566 218.28ZM574.395 218V203.44H579.659L579.715 205.96H579.771C580.331 205.344 580.928 204.831 581.563 204.42C582.216 203.991 582.907 203.673 583.635 203.468C584.363 203.263 585.109 203.16 585.875 203.16V207.64C584.792 207.64 583.793 207.827 582.879 208.2C581.983 208.573 581.264 209.077 580.723 209.712C580.2 210.347 579.939 211.056 579.939 211.84V218H574.395ZM598.481 218L594.281 197.56H600.021L601.953 212.12H602.009L603.801 199.24H610.521L612.313 212.12H612.369L614.301 197.56H620.041L615.841 218H609.121L607.189 205.12H607.133L605.201 218H598.481ZM628.858 218.28C626.058 218.28 623.911 217.627 622.418 216.32C620.925 215.013 620.178 213.147 620.178 210.72C620.178 208.368 620.85 206.52 622.194 205.176C623.538 203.832 625.386 203.16 627.738 203.16C630.034 203.16 631.817 203.804 633.086 205.092C634.374 206.361 635.018 208.144 635.018 210.44C635.018 210.776 635.009 211.149 634.99 211.56C634.971 211.971 634.943 212.251 634.906 212.4H623.258V209.18H630.566L629.922 210.16C629.922 208.947 629.745 208.06 629.39 207.5C629.054 206.94 628.503 206.66 627.738 206.66C626.991 206.66 626.441 206.94 626.086 207.5C625.731 208.06 625.554 208.947 625.554 210.16V211.84C625.554 212.736 625.797 213.38 626.282 213.772C626.767 214.164 627.551 214.36 628.634 214.36C629.437 214.36 630.305 214.285 631.238 214.136C632.171 213.987 632.965 213.8 633.618 213.576L634.178 217.496C633.525 217.739 632.713 217.925 631.742 218.056C630.79 218.205 629.829 218.28 628.858 218.28ZM647.086 218.28C646.19 218.28 645.387 218.131 644.678 217.832C643.969 217.515 643.269 217.011 642.578 216.32H642.522L642.466 218H637.258V197.56H642.746V205.12H642.802C643.474 204.411 644.137 203.907 644.79 203.608C645.462 203.309 646.227 203.16 647.086 203.16C648.971 203.16 650.418 203.813 651.426 205.12C652.434 206.408 652.938 208.275 652.938 210.72C652.938 213.165 652.434 215.041 651.426 216.348C650.418 217.636 648.971 218.28 647.086 218.28ZM645.098 214.08C645.901 214.08 646.507 213.791 646.918 213.212C647.347 212.633 647.562 211.803 647.562 210.72C647.562 209.619 647.347 208.788 646.918 208.228C646.507 207.649 645.901 207.36 645.098 207.36C644.631 207.36 644.221 207.453 643.866 207.64C643.511 207.827 643.231 208.088 643.026 208.424C642.839 208.76 642.746 209.152 642.746 209.6V211.84C642.746 212.288 642.839 212.68 643.026 213.016C643.231 213.352 643.511 213.613 643.866 213.8C644.221 213.987 644.631 214.08 645.098 214.08ZM660.964 218.28C660.31 218.28 659.582 218.233 658.78 218.14C657.996 218.047 657.23 217.925 656.484 217.776C655.737 217.608 655.093 217.431 654.552 217.244L655.112 213.324C656.138 213.679 657.062 213.94 657.884 214.108C658.724 214.276 659.545 214.36 660.348 214.36C660.982 214.36 661.412 214.304 661.636 214.192C661.878 214.061 662 213.847 662 213.548C662 213.399 661.962 213.277 661.888 213.184C661.813 213.072 661.664 212.979 661.44 212.904C661.234 212.829 660.917 212.745 660.488 212.652C659.125 212.316 657.996 211.924 657.1 211.476C656.204 211.009 655.532 210.459 655.084 209.824C654.654 209.189 654.44 208.461 654.44 207.64C654.44 206.165 654.99 205.055 656.092 204.308C657.193 203.543 658.817 203.16 660.964 203.16C661.897 203.16 662.896 203.235 663.96 203.384C665.024 203.533 666.069 203.748 667.096 204.028L666.536 207.948C665.546 207.631 664.669 207.407 663.904 207.276C663.138 207.145 662.41 207.08 661.72 207.08C661.122 207.08 660.693 207.136 660.432 207.248C660.17 207.341 660.04 207.519 660.04 207.78C660.04 207.929 660.086 208.06 660.18 208.172C660.273 208.284 660.432 208.387 660.656 208.48C660.88 208.555 661.188 208.639 661.58 208.732C662.588 208.956 663.465 209.236 664.212 209.572C664.977 209.889 665.602 210.253 666.088 210.664C666.592 211.056 666.965 211.504 667.208 212.008C667.469 212.512 667.6 213.063 667.6 213.66C667.6 214.575 667.32 215.387 666.76 216.096C666.218 216.787 665.444 217.328 664.436 217.72C663.446 218.093 662.289 218.28 660.964 218.28ZM670.019 202.04V197.56H675.619V202.04H670.019ZM670.019 218V204H675.619V218H670.019ZM685.821 218.28C683.899 218.28 682.508 217.916 681.649 217.188C680.791 216.441 680.361 215.219 680.361 213.52V207.36H677.645V203.44H680.361V198.68H685.905V203.44H689.965V207.36H685.905V212.4C685.905 213.053 685.98 213.501 686.129 213.744C686.297 213.968 686.615 214.08 687.081 214.08C687.399 214.08 687.781 214.043 688.229 213.968C688.677 213.893 689.088 213.791 689.461 213.66L689.881 217.72C689.135 217.907 688.444 218.047 687.809 218.14C687.175 218.233 686.512 218.28 685.821 218.28ZM700.334 218.28C697.534 218.28 695.388 217.627 693.894 216.32C692.401 215.013 691.654 213.147 691.654 210.72C691.654 208.368 692.326 206.52 693.67 205.176C695.014 203.832 696.862 203.16 699.214 203.16C701.51 203.16 703.293 203.804 704.562 205.092C705.85 206.361 706.494 208.144 706.494 210.44C706.494 210.776 706.485 211.149 706.466 211.56C706.448 211.971 706.42 212.251 706.382 212.4H694.734V209.18H702.042L701.398 210.16C701.398 208.947 701.221 208.06 700.866 207.5C700.53 206.94 699.98 206.66 699.214 206.66C698.468 206.66 697.917 206.94 697.562 207.5C697.208 208.06 697.03 208.947 697.03 210.16V211.84C697.03 212.736 697.273 213.38 697.758 213.772C698.244 214.164 699.028 214.36 700.11 214.36C700.913 214.36 701.781 214.285 702.714 214.136C703.648 213.987 704.441 213.8 705.094 213.576L705.654 217.496C705.001 217.739 704.189 217.925 703.218 218.056C702.266 218.205 701.305 218.28 700.334 218.28ZM670.95 253.668V251.68H687.19V253.668H670.95ZM670.95 260.08V258.092H687.19V260.08H670.95ZM707.301 267.08C705.957 267.08 704.977 266.744 704.361 266.072C703.764 265.419 703.465 264.355 703.465 262.88V259.24C703.465 258.12 703.269 257.271 702.877 256.692C702.485 256.095 701.907 255.796 701.141 255.796H699.825V253.724H701.141C701.907 253.724 702.485 253.435 702.877 252.856C703.269 252.259 703.465 251.4 703.465 250.28V246.64C703.465 245.147 703.764 244.073 704.361 243.42C704.977 242.767 705.957 242.44 707.301 242.44H710.017V244.4H708.337C707.628 244.4 707.077 244.493 706.685 244.68C706.293 244.848 706.013 245.156 705.845 245.604C705.696 246.052 705.621 246.677 705.621 247.48V250.504C705.621 251.605 705.435 252.501 705.061 253.192C704.688 253.883 704.119 254.396 703.353 254.732V254.788C704.119 255.124 704.688 255.637 705.061 256.328C705.435 257.019 705.621 257.915 705.621 259.016V262.04C705.621 262.843 705.696 263.468 705.845 263.916C706.013 264.364 706.293 264.672 706.685 264.84C707.077 265.027 707.628 265.12 708.337 265.12H710.017V267.08H707.301ZM437.312 313.08C436.006 311.325 435.017 309.412 434.345 307.34C433.691 305.268 433.365 303.075 433.365 300.76C433.365 298.427 433.691 296.233 434.345 294.18C435.017 292.108 436.006 290.195 437.312 288.44H439.525C438.218 290.288 437.247 292.22 436.613 294.236C435.978 296.233 435.661 298.408 435.661 300.76C435.661 303.112 435.978 305.296 436.613 307.312C437.247 309.309 438.218 311.232 439.525 313.08H437.312ZM445.86 313.08H443.648C444.973 311.232 445.944 309.309 446.56 307.312C447.194 305.296 447.512 303.112 447.512 300.76C447.512 298.408 447.194 296.233 446.56 294.236C445.944 292.22 444.973 290.288 443.648 288.44H445.86C447.166 290.195 448.146 292.108 448.8 294.18C449.472 296.233 449.808 298.427 449.808 300.76C449.808 303.075 449.472 305.268 448.8 307.34C448.146 309.412 447.166 311.325 445.86 313.08ZM463.794 299.668V297.68H480.034V299.668H463.794ZM463.794 306.08V304.092H480.034V306.08H463.794ZM484.788 309.552V307.284L499.264 301.908V301.852L484.788 296.476V294.208L501.028 300.592V303.168L484.788 309.552ZM519.633 310.28C518.046 310.28 516.683 309.981 515.545 309.384C514.406 308.768 513.529 307.9 512.913 306.78C512.315 305.641 512.017 304.288 512.017 302.72C512.017 301.152 512.315 299.808 512.913 298.688C513.529 297.549 514.406 296.681 515.545 296.084C516.683 295.468 518.046 295.16 519.633 295.16C520.417 295.16 521.163 295.244 521.873 295.412C522.582 295.561 523.273 295.813 523.945 296.168L523.525 297.96C522.89 297.643 522.265 297.409 521.649 297.26C521.033 297.111 520.407 297.036 519.773 297.036C518.037 297.036 516.683 297.54 515.713 298.548C514.742 299.537 514.257 300.928 514.257 302.72C514.257 304.493 514.742 305.884 515.713 306.892C516.683 307.9 518.037 308.404 519.773 308.404C520.407 308.404 521.033 308.329 521.649 308.18C522.265 308.031 522.89 307.797 523.525 307.48L523.945 309.272C523.273 309.608 522.582 309.86 521.873 310.028C521.163 310.196 520.417 310.28 519.633 310.28ZM533.866 310.28C531.626 310.28 529.881 309.617 528.63 308.292C527.398 306.967 526.782 305.109 526.782 302.72C526.782 300.331 527.398 298.473 528.63 297.148C529.881 295.823 531.626 295.16 533.866 295.16C536.106 295.16 537.842 295.823 539.074 297.148C540.325 298.473 540.95 300.331 540.95 302.72C540.95 305.109 540.325 306.967 539.074 308.292C537.842 309.617 536.106 310.28 533.866 310.28ZM533.866 308.404C535.434 308.404 536.638 307.919 537.478 306.948C538.337 305.959 538.766 304.549 538.766 302.72C538.766 300.891 538.337 299.491 537.478 298.52C536.638 297.531 535.434 297.036 533.866 297.036C532.317 297.036 531.113 297.531 530.254 298.52C529.395 299.491 528.966 300.891 528.966 302.72C528.966 304.549 529.395 305.959 530.254 306.948C531.113 307.919 532.317 308.404 533.866 308.404ZM544.5 310V295.44H546.656V297.4H546.712C547.272 296.672 548 296.121 548.896 295.748C549.792 295.356 550.81 295.16 551.948 295.16C553.703 295.16 555 295.636 555.84 296.588C556.68 297.54 557.1 299.024 557.1 301.04V310H554.916V301.432C554.916 299.92 554.627 298.809 554.048 298.1C553.488 297.391 552.602 297.036 551.388 297.036C550.474 297.036 549.662 297.223 548.952 297.596C548.262 297.951 547.711 298.445 547.3 299.08C546.908 299.696 546.712 300.415 546.712 301.236V310H544.5ZM565.74 310.28C565.106 310.28 564.452 310.233 563.78 310.14C563.108 310.065 562.464 309.953 561.848 309.804C561.251 309.636 560.719 309.449 560.252 309.244L560.616 307.452C561.363 307.732 562.156 307.965 562.996 308.152C563.855 308.32 564.695 308.404 565.516 308.404C566.748 308.404 567.682 308.208 568.316 307.816C568.951 307.424 569.268 306.836 569.268 306.052C569.268 305.548 569.128 305.147 568.848 304.848C568.568 304.531 568.148 304.269 567.588 304.064C567.047 303.84 566.356 303.635 565.516 303.448C564.508 303.187 563.594 302.888 562.772 302.552C561.97 302.216 561.335 301.777 560.868 301.236C560.42 300.676 560.196 299.957 560.196 299.08C560.196 297.811 560.682 296.84 561.652 296.168C562.642 295.496 564.06 295.16 565.908 295.16C566.786 295.16 567.672 295.235 568.568 295.384C569.483 295.533 570.295 295.748 571.004 296.028L570.612 297.848C569.959 297.568 569.25 297.363 568.484 297.232C567.719 297.101 566.944 297.036 566.16 297.036C564.91 297.036 563.967 297.213 563.332 297.568C562.716 297.923 562.408 298.445 562.408 299.136C562.408 299.603 562.539 299.976 562.8 300.256C563.062 300.536 563.454 300.779 563.976 300.984C564.499 301.189 565.162 301.385 565.964 301.572C566.73 301.74 567.439 301.945 568.092 302.188C568.764 302.431 569.352 302.72 569.856 303.056C570.36 303.392 570.752 303.812 571.032 304.316C571.331 304.82 571.48 305.417 571.48 306.108C571.48 306.985 571.247 307.732 570.78 308.348C570.332 308.964 569.679 309.44 568.82 309.776C567.962 310.112 566.935 310.28 565.74 310.28ZM580.952 310.28C578.712 310.28 576.967 309.617 575.716 308.292C574.484 306.967 573.868 305.109 573.868 302.72C573.868 300.331 574.484 298.473 575.716 297.148C576.967 295.823 578.712 295.16 580.952 295.16C583.192 295.16 584.928 295.823 586.16 297.148C587.411 298.473 588.036 300.331 588.036 302.72C588.036 305.109 587.411 306.967 586.16 308.292C584.928 309.617 583.192 310.28 580.952 310.28ZM580.952 308.404C582.52 308.404 583.724 307.919 584.564 306.948C585.423 305.959 585.852 304.549 585.852 302.72C585.852 300.891 585.423 299.491 584.564 298.52C583.724 297.531 582.52 297.036 580.952 297.036C579.403 297.036 578.199 297.531 577.34 298.52C576.481 299.491 576.052 300.891 576.052 302.72C576.052 304.549 576.481 305.959 577.34 306.948C578.199 307.919 579.403 308.404 580.952 308.404ZM591.838 310V289.56H594.078V310H591.838ZM605.464 310.28C603.037 310.28 601.161 309.627 599.836 308.32C598.529 307.013 597.876 305.147 597.876 302.72C597.876 300.368 598.483 298.52 599.696 297.176C600.928 295.832 602.627 295.16 604.792 295.16C606.864 295.16 608.451 295.795 609.552 297.064C610.653 298.315 611.204 300.116 611.204 302.468C611.204 302.655 611.204 302.851 611.204 303.056C611.204 303.261 611.195 303.439 611.176 303.588H599.08V301.796H609.552L609.132 302.384C609.132 300.573 608.768 299.22 608.04 298.324C607.312 297.428 606.229 296.98 604.792 296.98C603.261 296.98 602.085 297.465 601.264 298.436C600.443 299.388 600.032 300.751 600.032 302.524V303.084C600.032 304.857 600.48 306.192 601.376 307.088C602.291 307.965 603.625 308.404 605.38 308.404C606.183 308.404 607.013 308.32 607.872 308.152C608.749 307.984 609.533 307.76 610.224 307.48L610.56 309.272C609.851 309.589 609.048 309.832 608.152 310C607.256 310.187 606.36 310.28 605.464 310.28ZM614.294 310V307.004H617.29V310H614.294ZM622.792 310V289.56H625.032V310H622.792ZM635.913 310.28C633.673 310.28 631.928 309.617 630.677 308.292C629.445 306.967 628.829 305.109 628.829 302.72C628.829 300.331 629.445 298.473 630.677 297.148C631.928 295.823 633.673 295.16 635.913 295.16C638.153 295.16 639.889 295.823 641.121 297.148C642.372 298.473 642.997 300.331 642.997 302.72C642.997 305.109 642.372 306.967 641.121 308.292C639.889 309.617 638.153 310.28 635.913 310.28ZM635.913 308.404C637.481 308.404 638.685 307.919 639.525 306.948C640.384 305.959 640.813 304.549 640.813 302.72C640.813 300.891 640.384 299.491 639.525 298.52C638.685 297.531 637.481 297.036 635.913 297.036C634.364 297.036 633.16 297.531 632.301 298.52C631.442 299.491 631.013 300.891 631.013 302.72C631.013 304.549 631.442 305.959 632.301 306.948C633.16 307.919 634.364 308.404 635.913 308.404ZM651.808 316.16C650.707 316.16 649.661 316.048 648.672 315.824C647.701 315.6 646.861 315.273 646.152 314.844L646.544 313.052C647.216 313.444 647.991 313.743 648.868 313.948C649.764 314.172 650.679 314.284 651.612 314.284C653.46 314.284 654.776 313.836 655.56 312.94C656.363 312.063 656.764 310.616 656.764 308.6V307.312H656.708C656.204 307.965 655.513 308.488 654.636 308.88C653.759 309.253 652.788 309.44 651.724 309.44C649.783 309.44 648.261 308.815 647.16 307.564C646.059 306.295 645.508 304.54 645.508 302.3C645.508 300.06 646.059 298.315 647.16 297.064C648.261 295.795 649.783 295.16 651.724 295.16C652.788 295.16 653.768 295.356 654.664 295.748C655.56 296.121 656.26 296.635 656.764 297.288H656.82L656.848 295.44H658.948V308.6C658.948 311.213 658.369 313.127 657.212 314.34C656.073 315.553 654.272 316.16 651.808 316.16ZM652.2 307.564C653.077 307.564 653.852 307.405 654.524 307.088C655.215 306.752 655.756 306.304 656.148 305.744C656.559 305.165 656.764 304.503 656.764 303.756V300.844C656.764 300.116 656.559 299.463 656.148 298.884C655.756 298.305 655.215 297.857 654.524 297.54C653.852 297.204 653.077 297.036 652.2 297.036C650.781 297.036 649.671 297.493 648.868 298.408C648.084 299.323 647.692 300.62 647.692 302.3C647.692 303.98 648.084 305.277 648.868 306.192C649.671 307.107 650.781 307.564 652.2 307.564ZM668.34 313.08C667.033 311.325 666.044 309.412 665.372 307.34C664.719 305.268 664.392 303.075 664.392 300.76C664.392 298.427 664.719 296.233 665.372 294.18C666.044 292.108 667.033 290.195 668.34 288.44H670.552C669.245 290.288 668.275 292.22 667.64 294.236C667.005 296.233 666.688 298.408 666.688 300.76C666.688 303.112 667.005 305.296 667.64 307.312C668.275 309.309 669.245 311.232 670.552 313.08H668.34ZM677.646 288.44L675.042 296.84H672.41L675.574 288.44H677.646ZM683.33 288.44L680.726 296.84H678.094L681.258 288.44H683.33ZM695.442 310.28C693.295 310.28 691.428 309.86 689.842 309.02C688.255 308.161 687.032 306.948 686.174 305.38C685.334 303.812 684.914 301.945 684.914 299.78C684.914 297.615 685.334 295.748 686.174 294.18C687.032 292.612 688.255 291.408 689.842 290.568C691.428 289.709 693.295 289.28 695.442 289.28C697.943 289.28 700.155 289.859 702.078 291.016L701.49 293.004C699.623 291.884 697.635 291.324 695.526 291.324C693.827 291.324 692.352 291.669 691.102 292.36C689.87 293.051 688.918 294.031 688.246 295.3C687.574 296.551 687.238 298.044 687.238 299.78C687.238 301.497 687.574 302.991 688.246 304.26C688.918 305.529 689.87 306.509 691.102 307.2C692.352 307.891 693.827 308.236 695.526 308.236C697.598 308.236 699.586 307.676 701.49 306.556L702.078 308.544C700.155 309.701 697.943 310.28 695.442 310.28ZM706.6 310V289.56H708.84V310H706.6ZM713.983 292.164V289.56H716.587V292.164H713.983ZM714.179 310V295.44H716.419V310H714.179ZM728.019 310.28C726.433 310.28 725.07 309.981 723.931 309.384C722.793 308.768 721.915 307.9 721.299 306.78C720.702 305.641 720.403 304.288 720.403 302.72C720.403 301.152 720.702 299.808 721.299 298.688C721.915 297.549 722.793 296.681 723.931 296.084C725.07 295.468 726.433 295.16 728.019 295.16C728.803 295.16 729.55 295.244 730.259 295.412C730.969 295.561 731.659 295.813 732.331 296.168L731.911 297.96C731.277 297.643 730.651 297.409 730.035 297.26C729.419 297.111 728.794 297.036 728.159 297.036C726.423 297.036 725.07 297.54 724.099 298.548C723.129 299.537 722.643 300.928 722.643 302.72C722.643 304.493 723.129 305.884 724.099 306.892C725.07 307.9 726.423 308.404 728.159 308.404C728.794 308.404 729.419 308.329 730.035 308.18C730.651 308.031 731.277 307.797 731.911 307.48L732.331 309.272C731.659 309.608 730.969 309.86 730.259 310.028C729.55 310.196 728.803 310.28 728.019 310.28ZM736.59 310V289.56H738.83V301.684H738.886L746.39 295.44H749.302L740.846 302.44L749.666 310H746.754L738.886 303.168H738.83V310H736.59ZM757.687 310.28C755.26 310.28 753.384 309.627 752.059 308.32C750.752 307.013 750.099 305.147 750.099 302.72C750.099 300.368 750.705 298.52 751.919 297.176C753.151 295.832 754.849 295.16 757.015 295.16C759.087 295.16 760.673 295.795 761.775 297.064C762.876 298.315 763.427 300.116 763.427 302.468C763.427 302.655 763.427 302.851 763.427 303.056C763.427 303.261 763.417 303.439 763.399 303.588H751.303V301.796H761.775L761.355 302.384C761.355 300.573 760.991 299.22 760.263 298.324C759.535 297.428 758.452 296.98 757.015 296.98C755.484 296.98 754.308 297.465 753.487 298.436C752.665 299.388 752.255 300.751 752.255 302.524V303.084C752.255 304.857 752.703 306.192 753.599 307.088C754.513 307.965 755.848 308.404 757.603 308.404C758.405 308.404 759.236 308.32 760.095 308.152C760.972 307.984 761.756 307.76 762.447 307.48L762.783 309.272C762.073 309.589 761.271 309.832 760.375 310C759.479 310.187 758.583 310.28 757.687 310.28ZM772.091 310.28C770.131 310.28 768.601 309.617 767.499 308.292C766.417 306.948 765.875 305.091 765.875 302.72C765.875 300.349 766.417 298.501 767.499 297.176C768.601 295.832 770.131 295.16 772.091 295.16C773.137 295.16 774.107 295.356 775.003 295.748C775.899 296.14 776.59 296.691 777.075 297.4H777.131V289.56H779.315V310H777.243L777.215 308.04H777.159C776.655 308.731 775.946 309.281 775.031 309.692C774.117 310.084 773.137 310.28 772.091 310.28ZM772.539 308.404C773.435 308.404 774.219 308.227 774.891 307.872C775.582 307.499 776.123 306.995 776.515 306.36C776.926 305.725 777.131 304.997 777.131 304.176V301.264C777.131 300.443 776.926 299.715 776.515 299.08C776.123 298.445 775.582 297.951 774.891 297.596C774.219 297.223 773.435 297.036 772.539 297.036C771.139 297.036 770.038 297.531 769.235 298.52C768.451 299.491 768.059 300.891 768.059 302.72C768.059 304.549 768.451 305.959 769.235 306.948C770.038 307.919 771.139 308.404 772.539 308.404ZM783.023 296.84L785.627 288.44H788.259L785.095 296.84H783.023ZM788.707 296.84L791.311 288.44H793.943L790.779 296.84H788.707ZM797.801 313.08H795.589C796.914 311.232 797.885 309.309 798.501 307.312C799.136 305.296 799.453 303.112 799.453 300.76C799.453 298.408 799.136 296.233 798.501 294.236C797.885 292.22 796.914 290.288 795.589 288.44H797.801C799.108 290.195 800.088 292.108 800.741 294.18C801.413 296.233 801.749 298.427 801.749 300.76C801.749 303.075 801.413 305.268 800.741 307.34C800.088 309.412 799.108 311.325 797.801 313.08ZM407.673 359.08H404.957V357.12H406.637C407.347 357.12 407.897 357.027 408.289 356.84C408.681 356.672 408.952 356.364 409.101 355.916C409.269 355.468 409.353 354.843 409.353 354.04V351.016C409.353 349.915 409.54 349.019 409.913 348.328C410.287 347.637 410.856 347.124 411.621 346.788V346.732C410.856 346.396 410.287 345.883 409.913 345.192C409.54 344.501 409.353 343.605 409.353 342.504V339.48C409.353 338.677 409.269 338.052 409.101 337.604C408.952 337.156 408.681 336.848 408.289 336.68C407.897 336.493 407.347 336.4 406.637 336.4H404.957V334.44H407.673C409.017 334.44 409.988 334.767 410.585 335.42C411.183 336.073 411.481 337.147 411.481 338.64V342.28C411.481 343.4 411.677 344.259 412.069 344.856C412.48 345.435 413.068 345.724 413.833 345.724H415.121V347.796H413.833C413.068 347.796 412.48 348.095 412.069 348.692C411.677 349.271 411.481 350.12 411.481 351.24V354.88C411.481 356.355 411.183 357.419 410.585 358.072C409.988 358.744 409.017 359.08 407.673 359.08ZM465.339 356.28C463.099 356.28 461.177 355.869 459.571 355.048C457.966 354.208 456.734 353.004 455.875 351.436C455.035 349.868 454.615 347.983 454.615 345.78C454.615 343.577 455.035 341.692 455.875 340.124C456.734 338.556 457.966 337.361 459.571 336.54C461.177 335.7 463.099 335.28 465.339 335.28C467.897 335.28 470.165 335.831 472.143 336.932L471.247 340.348C469.325 339.265 467.411 338.724 465.507 338.724C464.089 338.724 462.866 339.004 461.839 339.564C460.813 340.124 460.029 340.936 459.487 342C458.946 343.045 458.675 344.305 458.675 345.78C458.675 347.236 458.946 348.496 459.487 349.56C460.029 350.624 460.813 351.436 461.839 351.996C462.866 352.556 464.089 352.836 465.507 352.836C467.374 352.836 469.287 352.295 471.247 351.212L472.143 354.628C470.165 355.729 467.897 356.28 465.339 356.28ZM475.722 356V335.56H479.642V356H475.722ZM483.816 339.116V335.56H487.736V339.116H483.816ZM483.816 356V341.636H487.736V356H483.816ZM498.963 356.28C497.264 356.28 495.808 355.981 494.595 355.384C493.381 354.787 492.457 353.928 491.823 352.808C491.188 351.669 490.871 350.307 490.871 348.72C490.871 347.115 491.188 345.752 491.823 344.632C492.457 343.512 493.381 342.653 494.595 342.056C495.808 341.459 497.264 341.16 498.963 341.16C499.821 341.16 500.624 341.244 501.371 341.412C502.117 341.58 502.845 341.851 503.555 342.224L502.939 345.164C502.285 344.809 501.651 344.557 501.035 344.408C500.437 344.24 499.84 344.156 499.243 344.156C497.824 344.156 496.723 344.548 495.939 345.332C495.173 346.116 494.791 347.245 494.791 348.72C494.791 350.176 495.173 351.305 495.939 352.108C496.723 352.892 497.824 353.284 499.243 353.284C499.84 353.284 500.437 353.209 501.035 353.06C501.651 352.892 502.285 352.631 502.939 352.276L503.555 355.216C502.845 355.589 502.117 355.86 501.371 356.028C500.624 356.196 499.821 356.28 498.963 356.28ZM507.053 356V335.56H510.917V347.264H510.973L516.489 341.44H521.193L514.221 348.44L521.445 356H516.741L510.973 349.616H510.917V356H507.053ZM531.553 356V341.44H535.137L535.193 343.148H535.249C535.79 342.495 536.406 342 537.097 341.664C537.806 341.328 538.637 341.16 539.589 341.16C540.522 341.16 541.316 341.328 541.969 341.664C542.622 342 543.089 342.495 543.369 343.148H543.425C544.004 342.457 544.657 341.953 545.385 341.636C546.113 341.319 546.962 341.16 547.933 341.16C549.482 341.16 550.602 341.571 551.293 342.392C552.002 343.213 552.357 344.511 552.357 346.284V356H548.605V347.236C548.605 346.228 548.446 345.491 548.129 345.024C547.812 344.557 547.298 344.324 546.589 344.324C545.749 344.324 545.086 344.613 544.601 345.192C544.116 345.752 543.873 346.499 543.873 347.432V356H540.093V347.04C540.093 346.144 539.916 345.472 539.561 345.024C539.225 344.557 538.721 344.324 538.049 344.324C537.545 344.324 537.088 344.464 536.677 344.744C536.266 345.005 535.94 345.369 535.697 345.836C535.454 346.303 535.333 346.835 535.333 347.432V356H531.553ZM563.058 356.28C560.444 356.28 558.428 355.627 557.01 354.32C555.61 353.013 554.91 351.147 554.91 348.72C554.91 346.368 555.554 344.52 556.842 343.176C558.13 341.832 559.903 341.16 562.162 341.16C564.346 341.16 566.026 341.795 567.202 343.064C568.396 344.333 568.994 346.135 568.994 348.468C568.994 348.729 568.984 349.028 568.966 349.364C568.966 349.7 568.956 349.952 568.938 350.12H557.066V347.46H565.942L565.41 348.272C565.41 346.816 565.139 345.733 564.598 345.024C564.075 344.315 563.263 343.96 562.162 343.96C561.004 343.96 560.136 344.333 559.558 345.08C558.979 345.808 558.69 346.9 558.69 348.356V349.476C558.69 350.783 559.035 351.744 559.726 352.36C560.416 352.976 561.471 353.284 562.89 353.284C563.692 353.284 564.542 353.209 565.438 353.06C566.334 352.911 567.127 352.705 567.818 352.444L568.266 355.384C567.575 355.664 566.763 355.879 565.83 356.028C564.915 356.196 563.991 356.28 563.058 356.28ZM580.549 349.756L579.989 335.56H584.637L584.077 349.756H580.549ZM580.157 356V351.996H584.469V356H580.157ZM405.621 405.08H402.625C403.95 403.232 404.921 401.309 405.537 399.312C406.171 397.296 406.489 395.112 406.489 392.76C406.489 390.408 406.171 388.233 405.537 386.236C404.921 384.22 403.95 382.288 402.625 380.44H405.621C406.946 382.139 407.945 384.033 408.617 386.124C409.307 388.215 409.653 390.427 409.653 392.76C409.653 395.075 409.307 397.277 408.617 399.368C407.945 401.459 406.946 403.363 405.621 405.08ZM415.718 405.08H412.778V402.42H414.178C414.906 402.42 415.457 402.336 415.83 402.168C416.222 402.019 416.484 401.739 416.614 401.328C416.764 400.899 416.838 400.283 416.838 399.48V397.184C416.838 396.008 417.044 395.075 417.454 394.384C417.865 393.675 418.509 393.143 419.386 392.788V392.732C418.509 392.377 417.865 391.855 417.454 391.164C417.044 390.455 416.838 389.512 416.838 388.336V386.04C416.838 385.237 416.764 384.631 416.614 384.22C416.484 383.791 416.222 383.501 415.83 383.352C415.457 383.184 414.906 383.1 414.178 383.1H412.778V380.44H415.718C417.156 380.44 418.192 380.776 418.826 381.448C419.461 382.12 419.778 383.231 419.778 384.78V388C419.778 389.12 419.974 389.96 420.366 390.52C420.758 391.08 421.356 391.36 422.158 391.36H423.418V394.16H422.158C421.356 394.16 420.758 394.44 420.366 395C419.974 395.56 419.778 396.4 419.778 397.52V400.74C419.778 402.271 419.461 403.372 418.826 404.044C418.192 404.735 417.156 405.08 415.718 405.08Z" fill="#FAFAFA"/>
<path d="M541.679 126V105.56H544.759V126H541.679ZM529.079 126V105.56H532.159V126H529.079ZM530.619 116.704V113.904H543.219V116.704H530.619ZM555.524 126.28C553.21 126.28 551.418 125.627 550.148 124.32C548.879 122.995 548.244 121.128 548.244 118.72C548.244 116.312 548.879 114.455 550.148 113.148C551.418 111.823 553.21 111.16 555.524 111.16C557.839 111.16 559.631 111.823 560.9 113.148C562.17 114.455 562.804 116.312 562.804 118.72C562.804 121.128 562.17 122.995 560.9 124.32C559.631 125.627 557.839 126.28 555.524 126.28ZM555.524 123.76C556.906 123.76 557.96 123.331 558.688 122.472C559.416 121.613 559.78 120.363 559.78 118.72C559.78 117.077 559.416 115.827 558.688 114.968C557.96 114.109 556.906 113.68 555.524 113.68C554.162 113.68 553.107 114.109 552.36 114.968C551.632 115.827 551.268 117.077 551.268 118.72C551.268 120.363 551.632 121.613 552.36 122.472C553.107 123.331 554.162 123.76 555.524 123.76ZM566.043 126V111.44H568.871L568.899 113.176H568.955C569.477 112.541 570.112 112.047 570.859 111.692C571.605 111.337 572.473 111.16 573.463 111.16C574.433 111.16 575.255 111.337 575.927 111.692C576.599 112.028 577.075 112.523 577.355 113.176H577.411C577.952 112.485 578.587 111.981 579.315 111.664C580.061 111.328 580.929 111.16 581.919 111.16C583.505 111.16 584.663 111.58 585.391 112.42C586.119 113.241 586.483 114.548 586.483 116.34V126H583.515V117.04C583.515 115.883 583.319 115.033 582.927 114.492C582.535 113.951 581.909 113.68 581.051 113.68C580.043 113.68 579.24 114.016 578.643 114.688C578.045 115.341 577.747 116.219 577.747 117.32V126H574.779V116.76C574.779 115.771 574.564 115.015 574.135 114.492C573.705 113.951 573.099 113.68 572.315 113.68C571.699 113.68 571.139 113.839 570.635 114.156C570.131 114.473 569.729 114.912 569.431 115.472C569.151 116.013 569.011 116.629 569.011 117.32V126H566.043ZM597.183 126.28C594.663 126.28 592.721 125.627 591.359 124.32C589.996 123.013 589.315 121.147 589.315 118.72C589.315 116.368 589.94 114.52 591.191 113.176C592.46 111.832 594.196 111.16 596.399 111.16C598.527 111.16 600.16 111.795 601.299 113.064C602.456 114.333 603.035 116.135 603.035 118.468C603.035 118.711 603.025 118.981 603.007 119.28C603.007 119.579 602.997 119.812 602.979 119.98H590.995V117.6H600.683L600.207 118.328C600.207 116.741 599.889 115.565 599.255 114.8C598.62 114.016 597.668 113.624 596.399 113.624C595.055 113.624 594.028 114.035 593.319 114.856C592.628 115.677 592.283 116.872 592.283 118.44V119.28C592.283 120.792 592.675 121.921 593.459 122.668C594.261 123.396 595.465 123.76 597.071 123.76C597.855 123.76 598.685 123.685 599.563 123.536C600.459 123.368 601.252 123.153 601.943 122.892L602.335 125.328C601.625 125.627 600.813 125.86 599.899 126.028C599.003 126.196 598.097 126.28 597.183 126.28ZM614.022 111.16C615.963 111.16 617.485 111.832 618.586 113.176C619.687 114.501 620.238 116.349 620.238 118.72C620.238 121.091 619.687 122.948 618.586 124.292C617.485 125.617 615.963 126.28 614.022 126.28C613.051 126.28 612.155 126.103 611.334 125.748C610.513 125.393 609.841 124.899 609.318 124.264H609.262V131.88H606.238V111.44H609.122L609.15 113.176H609.206C609.747 112.523 610.438 112.028 611.278 111.692C612.118 111.337 613.033 111.16 614.022 111.16ZM613.322 113.68C612.557 113.68 611.866 113.839 611.25 114.156C610.634 114.473 610.149 114.912 609.794 115.472C609.439 116.013 609.262 116.639 609.262 117.348V120.092C609.262 120.783 609.439 121.408 609.794 121.968C610.149 122.528 610.634 122.967 611.25 123.284C611.866 123.601 612.557 123.76 613.322 123.76C614.591 123.76 615.562 123.321 616.234 122.444C616.925 121.567 617.27 120.325 617.27 118.72C617.27 117.115 616.925 115.873 616.234 114.996C615.562 114.119 614.591 113.68 613.322 113.68ZM627.045 126.28C625.589 126.28 624.441 125.888 623.601 125.104C622.761 124.301 622.341 123.219 622.341 121.856C622.341 120.157 623.013 118.851 624.357 117.936C625.701 117.003 627.614 116.536 630.097 116.536H632.197C632.197 115.789 632.103 115.211 631.917 114.8C631.73 114.389 631.403 114.1 630.937 113.932C630.489 113.764 629.863 113.68 629.061 113.68C628.109 113.68 627.138 113.773 626.149 113.96C625.178 114.147 624.254 114.427 623.377 114.8L622.957 112.308C623.89 111.953 624.917 111.673 626.037 111.468C627.175 111.263 628.314 111.16 629.453 111.16C630.909 111.16 632.047 111.337 632.869 111.692C633.709 112.047 634.306 112.644 634.661 113.484C635.034 114.324 635.221 115.435 635.221 116.816V126H632.337L632.309 124.32H632.253C631.749 124.899 631.002 125.375 630.013 125.748C629.042 126.103 628.053 126.28 627.045 126.28ZM628.109 123.816C628.855 123.816 629.537 123.676 630.153 123.396C630.787 123.116 631.282 122.743 631.637 122.276C632.01 121.809 632.197 121.287 632.197 120.708V118.832H630.517C628.799 118.832 627.511 119.056 626.653 119.504C625.794 119.952 625.365 120.633 625.365 121.548C625.365 122.257 625.598 122.817 626.065 123.228C626.55 123.62 627.231 123.816 628.109 123.816ZM644.565 132.16C643.427 132.16 642.344 132.048 641.317 131.824C640.291 131.6 639.432 131.283 638.741 130.872L639.161 128.408C639.833 128.8 640.617 129.099 641.513 129.304C642.428 129.528 643.352 129.64 644.285 129.64C645.984 129.64 647.197 129.239 647.925 128.436C648.653 127.633 649.017 126.308 649.017 124.46V123.536H648.961C648.439 124.152 647.767 124.628 646.945 124.964C646.124 125.281 645.228 125.44 644.257 125.44C642.316 125.44 640.795 124.815 639.693 123.564C638.592 122.295 638.041 120.54 638.041 118.3C638.041 116.06 638.592 114.315 639.693 113.064C640.795 111.795 642.316 111.16 644.257 111.16C645.247 111.16 646.161 111.328 647.001 111.664C647.86 112 648.551 112.467 649.073 113.064H649.129L649.157 111.44H652.041V124.46C652.041 127.092 651.435 129.033 650.221 130.284C649.008 131.535 647.123 132.16 644.565 132.16ZM644.957 122.92C645.741 122.92 646.432 122.78 647.029 122.5C647.645 122.22 648.131 121.837 648.485 121.352C648.84 120.867 649.017 120.316 649.017 119.7V116.9C649.017 116.284 648.84 115.733 648.485 115.248C648.131 114.763 647.645 114.38 647.029 114.1C646.432 113.82 645.741 113.68 644.957 113.68C643.707 113.68 642.736 114.081 642.045 114.884C641.355 115.687 641.009 116.825 641.009 118.3C641.009 119.775 641.355 120.913 642.045 121.716C642.736 122.519 643.707 122.92 644.957 122.92ZM663.163 126.28C660.643 126.28 658.702 125.627 657.339 124.32C655.976 123.013 655.295 121.147 655.295 118.72C655.295 116.368 655.92 114.52 657.171 113.176C658.44 111.832 660.176 111.16 662.379 111.16C664.507 111.16 666.14 111.795 667.279 113.064C668.436 114.333 669.015 116.135 669.015 118.468C669.015 118.711 669.006 118.981 668.987 119.28C668.987 119.579 668.978 119.812 668.959 119.98H656.975V117.6H666.663L666.187 118.328C666.187 116.741 665.87 115.565 665.235 114.8C664.6 114.016 663.648 113.624 662.379 113.624C661.035 113.624 660.008 114.035 659.299 114.856C658.608 115.677 658.263 116.872 658.263 118.44V119.28C658.263 120.792 658.655 121.921 659.439 122.668C660.242 123.396 661.446 123.76 663.051 123.76C663.835 123.76 664.666 123.685 665.543 123.536C666.439 123.368 667.232 123.153 667.923 122.892L668.315 125.328C667.606 125.627 666.794 125.86 665.879 126.028C664.983 126.196 664.078 126.28 663.163 126.28Z" fill="#FCA5A5"/>
<path d="M456.573 217.552L440.333 211.168V208.592L456.573 202.208V204.476L442.125 209.852V209.908L456.573 215.284V217.552ZM461.567 218V197.56H463.779V205.4H463.835C464.395 204.672 465.114 204.121 465.991 203.748C466.868 203.356 467.876 203.16 469.015 203.16C470.807 203.16 472.114 203.636 472.935 204.588C473.775 205.54 474.186 207.024 474.167 209.04V218H471.983V209.432C472.002 207.92 471.722 206.809 471.143 206.1C470.564 205.391 469.668 205.036 468.455 205.036C467.54 205.036 466.728 205.223 466.019 205.596C465.328 205.951 464.787 206.445 464.395 207.08C464.003 207.696 463.798 208.424 463.779 209.264V218H461.567ZM486.279 218V200.164H486.223L478.467 204.7L477.739 202.74L486.279 197.56H488.575V218H486.279ZM496.381 217.552V215.284L510.857 209.908V209.852L496.381 204.476V202.208L512.621 208.592V211.168L496.381 217.552ZM732.827 217.552L716.587 211.168V208.592L732.827 202.208V204.476L718.379 209.852V209.908L732.827 215.284V217.552ZM736.464 219.12L746.376 196.44H748.644L738.732 219.12H736.464ZM751.438 218V197.56H753.65V205.4H753.706C754.266 204.672 754.985 204.121 755.862 203.748C756.739 203.356 757.747 203.16 758.886 203.16C760.678 203.16 761.985 203.636 762.806 204.588C763.646 205.54 764.057 207.024 764.038 209.04V218H761.854V209.432C761.873 207.92 761.593 206.809 761.014 206.1C760.435 205.391 759.539 205.036 758.326 205.036C757.411 205.036 756.599 205.223 755.89 205.596C755.199 205.951 754.658 206.445 754.266 207.08C753.874 207.696 753.669 208.424 753.65 209.264V218H751.438ZM776.15 218V200.164H776.094L768.338 204.7L767.61 202.74L776.15 197.56H778.446V218H776.15ZM786.252 217.552V215.284L800.728 209.908V209.852L786.252 204.476V202.208L802.492 208.592V211.168L786.252 217.552ZM456.573 263.552L440.333 257.168V254.592L456.573 248.208V250.476L442.125 255.852V255.908L456.573 261.284V263.552ZM468.847 264.28C467.783 264.28 466.794 264.084 465.879 263.692C464.983 263.281 464.274 262.731 463.751 262.04H463.695V264H461.567V243.56H463.779V251.4H463.835C464.339 250.691 465.03 250.14 465.907 249.748C466.803 249.356 467.783 249.16 468.847 249.16C470.788 249.16 472.3 249.832 473.383 251.176C474.466 252.501 475.007 254.349 475.007 256.72C475.007 259.091 474.466 260.948 473.383 262.292C472.3 263.617 470.788 264.28 468.847 264.28ZM468.371 262.404C469.808 262.404 470.91 261.919 471.675 260.948C472.459 259.959 472.851 258.549 472.851 256.72C472.851 254.891 472.459 253.491 471.675 252.52C470.91 251.531 469.808 251.036 468.371 251.036C467.494 251.036 466.71 251.223 466.019 251.596C465.328 251.951 464.778 252.445 464.367 253.08C463.975 253.696 463.779 254.424 463.779 255.264V258.176C463.779 258.997 463.975 259.725 464.367 260.36C464.778 260.995 465.328 261.499 466.019 261.872C466.71 262.227 467.494 262.404 468.371 262.404ZM483.03 264.28C481.294 264.28 480.015 263.804 479.194 262.852C478.391 261.881 477.99 260.397 477.99 258.4V249.44H480.202V258.008C480.202 259.52 480.473 260.631 481.014 261.34C481.555 262.049 482.405 262.404 483.562 262.404C484.458 262.404 485.242 262.227 485.914 261.872C486.605 261.499 487.137 261.004 487.51 260.388C487.902 259.753 488.098 259.025 488.098 258.204V249.44H490.31V264H488.182L488.154 262.04H488.098C487.557 262.768 486.857 263.328 485.998 263.72C485.139 264.093 484.15 264.28 483.03 264.28ZM501.42 264.28C499.834 264.28 498.686 263.944 497.976 263.272C497.286 262.581 496.94 261.452 496.94 259.884V251.316H493.384V249.44H496.94V244.68H499.152V249.44H504.556V251.316H499.152V259.324C499.152 260.444 499.348 261.228 499.74 261.676C500.132 262.105 500.832 262.32 501.84 262.32C502.288 262.32 502.718 262.283 503.128 262.208C503.558 262.133 503.959 262.031 504.332 261.9L504.584 263.804C504.024 263.972 503.483 264.093 502.96 264.168C502.456 264.243 501.943 264.28 501.42 264.28ZM514.354 264.28C512.767 264.28 511.619 263.944 510.91 263.272C510.219 262.581 509.874 261.452 509.874 259.884V251.316H506.318V249.44H509.874V244.68H512.086V249.44H517.49V251.316H512.086V259.324C512.086 260.444 512.282 261.228 512.674 261.676C513.066 262.105 513.766 262.32 514.774 262.32C515.222 262.32 515.651 262.283 516.062 262.208C516.491 262.133 516.893 262.031 517.266 261.9L517.518 263.804C516.958 263.972 516.417 264.093 515.894 264.168C515.39 264.243 514.877 264.28 514.354 264.28ZM526.702 264.28C524.462 264.28 522.717 263.617 521.466 262.292C520.234 260.967 519.618 259.109 519.618 256.72C519.618 254.331 520.234 252.473 521.466 251.148C522.717 249.823 524.462 249.16 526.702 249.16C528.942 249.16 530.678 249.823 531.91 251.148C533.161 252.473 533.786 254.331 533.786 256.72C533.786 259.109 533.161 260.967 531.91 262.292C530.678 263.617 528.942 264.28 526.702 264.28ZM526.702 262.404C528.27 262.404 529.474 261.919 530.314 260.948C531.173 259.959 531.602 258.549 531.602 256.72C531.602 254.891 531.173 253.491 530.314 252.52C529.474 251.531 528.27 251.036 526.702 251.036C525.153 251.036 523.949 251.531 523.09 252.52C522.231 253.491 521.802 254.891 521.802 256.72C521.802 258.549 522.231 259.959 523.09 260.948C523.949 261.919 525.153 262.404 526.702 262.404ZM537.336 264V249.44H539.492V251.4H539.548C540.108 250.672 540.836 250.121 541.732 249.748C542.628 249.356 543.646 249.16 544.784 249.16C546.539 249.16 547.836 249.636 548.676 250.588C549.516 251.54 549.936 253.024 549.936 255.04V264H547.752V255.432C547.752 253.92 547.463 252.809 546.884 252.1C546.324 251.391 545.438 251.036 544.224 251.036C543.31 251.036 542.498 251.223 541.788 251.596C541.098 251.951 540.547 252.445 540.136 253.08C539.744 253.696 539.548 254.415 539.548 255.236V264H537.336ZM419.459 355.552V353.284L433.935 347.908V347.852L419.459 342.476V340.208L435.699 346.592V349.168L419.459 355.552ZM612.62 355.552L596.38 349.168V346.592L612.62 340.208V342.476L598.172 347.852V347.908L612.62 353.284V355.552ZM616.257 357.12L626.169 334.44H628.437L618.525 357.12H616.257ZM638.511 356.28C637.447 356.28 636.458 356.084 635.543 355.692C634.647 355.281 633.938 354.731 633.415 354.04H633.359V356H631.231V335.56H633.443V343.4H633.499C634.003 342.691 634.694 342.14 635.571 341.748C636.467 341.356 637.447 341.16 638.511 341.16C640.452 341.16 641.964 341.832 643.047 343.176C644.13 344.501 644.671 346.349 644.671 348.72C644.671 351.091 644.13 352.948 643.047 354.292C641.964 355.617 640.452 356.28 638.511 356.28ZM638.035 354.404C639.472 354.404 640.574 353.919 641.339 352.948C642.123 351.959 642.515 350.549 642.515 348.72C642.515 346.891 642.123 345.491 641.339 344.52C640.574 343.531 639.472 343.036 638.035 343.036C637.158 343.036 636.374 343.223 635.683 343.596C634.992 343.951 634.442 344.445 634.031 345.08C633.639 345.696 633.443 346.424 633.443 347.264V350.176C633.443 350.997 633.639 351.725 634.031 352.36C634.442 352.995 634.992 353.499 635.683 353.872C636.374 354.227 637.158 354.404 638.035 354.404ZM652.694 356.28C650.958 356.28 649.679 355.804 648.858 354.852C648.055 353.881 647.654 352.397 647.654 350.4V341.44H649.866V350.008C649.866 351.52 650.137 352.631 650.678 353.34C651.219 354.049 652.069 354.404 653.226 354.404C654.122 354.404 654.906 354.227 655.578 353.872C656.269 353.499 656.801 353.004 657.174 352.388C657.566 351.753 657.762 351.025 657.762 350.204V341.44H659.974V356H657.846L657.818 354.04H657.762C657.221 354.768 656.521 355.328 655.662 355.72C654.803 356.093 653.814 356.28 652.694 356.28ZM671.084 356.28C669.498 356.28 668.35 355.944 667.64 355.272C666.95 354.581 666.604 353.452 666.604 351.884V343.316H663.048V341.44H666.604V336.68H668.816V341.44H674.22V343.316H668.816V351.324C668.816 352.444 669.012 353.228 669.404 353.676C669.796 354.105 670.496 354.32 671.504 354.32C671.952 354.32 672.382 354.283 672.792 354.208C673.222 354.133 673.623 354.031 673.996 353.9L674.248 355.804C673.688 355.972 673.147 356.093 672.624 356.168C672.12 356.243 671.607 356.28 671.084 356.28ZM684.018 356.28C682.431 356.28 681.283 355.944 680.574 355.272C679.883 354.581 679.538 353.452 679.538 351.884V343.316H675.982V341.44H679.538V336.68H681.75V341.44H687.154V343.316H681.75V351.324C681.75 352.444 681.946 353.228 682.338 353.676C682.73 354.105 683.43 354.32 684.438 354.32C684.886 354.32 685.315 354.283 685.726 354.208C686.155 354.133 686.557 354.031 686.93 353.9L687.182 355.804C686.622 355.972 686.081 356.093 685.558 356.168C685.054 356.243 684.541 356.28 684.018 356.28ZM696.366 356.28C694.126 356.28 692.381 355.617 691.13 354.292C689.898 352.967 689.282 351.109 689.282 348.72C689.282 346.331 689.898 344.473 691.13 343.148C692.381 341.823 694.126 341.16 696.366 341.16C698.606 341.16 700.342 341.823 701.574 343.148C702.825 344.473 703.45 346.331 703.45 348.72C703.45 351.109 702.825 352.967 701.574 354.292C700.342 355.617 698.606 356.28 696.366 356.28ZM696.366 354.404C697.934 354.404 699.138 353.919 699.978 352.948C700.837 351.959 701.266 350.549 701.266 348.72C701.266 346.891 700.837 345.491 699.978 344.52C699.138 343.531 697.934 343.036 696.366 343.036C694.817 343.036 693.613 343.531 692.754 344.52C691.895 345.491 691.466 346.891 691.466 348.72C691.466 350.549 691.895 351.959 692.754 352.948C693.613 353.919 694.817 354.404 696.366 354.404ZM707 356V341.44H709.156V343.4H709.212C709.772 342.672 710.5 342.121 711.396 341.748C712.292 341.356 713.31 341.16 714.448 341.16C716.203 341.16 717.5 341.636 718.34 342.588C719.18 343.54 719.6 345.024 719.6 347.04V356H717.416V347.432C717.416 345.92 717.127 344.809 716.548 344.1C715.988 343.391 715.102 343.036 713.888 343.036C712.974 343.036 712.162 343.223 711.452 343.596C710.762 343.951 710.211 344.445 709.8 345.08C709.408 345.696 709.212 346.415 709.212 347.236V356H707ZM723.741 355.552V353.284L738.217 347.908V347.852L723.741 342.476V340.208L739.981 346.592V349.168L723.741 355.552Z" fill="#FBBF24"/>
<path d="M568.155 264.28C565.915 264.28 564.17 263.617 562.919 262.292C561.687 260.967 561.071 259.109 561.071 256.72C561.071 254.331 561.687 252.473 562.919 251.148C564.17 249.823 565.915 249.16 568.155 249.16C570.395 249.16 572.131 249.823 573.363 251.148C574.614 252.473 575.239 254.331 575.239 256.72C575.239 259.109 574.614 260.967 573.363 262.292C572.131 263.617 570.395 264.28 568.155 264.28ZM568.155 262.404C569.723 262.404 570.927 261.919 571.767 260.948C572.626 259.959 573.055 258.549 573.055 256.72C573.055 254.891 572.626 253.491 571.767 252.52C570.927 251.531 569.723 251.036 568.155 251.036C566.606 251.036 565.402 251.531 564.543 252.52C563.685 253.491 563.255 254.891 563.255 256.72C563.255 258.549 563.685 259.959 564.543 260.948C565.402 261.919 566.606 262.404 568.155 262.404ZM578.79 264V249.44H580.946V251.4H581.002C581.562 250.672 582.29 250.121 583.186 249.748C584.082 249.356 585.099 249.16 586.238 249.16C587.992 249.16 589.29 249.636 590.13 250.588C590.97 251.54 591.39 253.024 591.39 255.04V264H589.206V255.432C589.206 253.92 588.916 252.809 588.338 252.1C587.778 251.391 586.891 251.036 585.678 251.036C584.763 251.036 583.951 251.223 583.242 251.596C582.551 251.951 582 252.445 581.59 253.08C581.198 253.696 581.002 254.415 581.002 255.236V264H578.79ZM604.989 264.28C602.842 264.28 600.975 263.86 599.389 263.02C597.802 262.161 596.579 260.948 595.721 259.38C594.881 257.812 594.461 255.945 594.461 253.78C594.461 251.615 594.881 249.748 595.721 248.18C596.579 246.612 597.802 245.408 599.389 244.568C600.975 243.709 602.842 243.28 604.989 243.28C607.49 243.28 609.702 243.859 611.625 245.016L611.037 247.004C609.17 245.884 607.182 245.324 605.073 245.324C603.374 245.324 601.899 245.669 600.649 246.36C599.417 247.051 598.465 248.031 597.793 249.3C597.121 250.551 596.785 252.044 596.785 253.78C596.785 255.497 597.121 256.991 597.793 258.26C598.465 259.529 599.417 260.509 600.649 261.2C601.899 261.891 603.374 262.236 605.073 262.236C607.145 262.236 609.133 261.676 611.037 260.556L611.625 262.544C609.702 263.701 607.49 264.28 604.989 264.28ZM616.147 264V243.56H618.387V264H616.147ZM623.53 246.164V243.56H626.134V246.164H623.53ZM623.726 264V249.44H625.966V264H623.726ZM637.566 264.28C635.979 264.28 634.617 263.981 633.478 263.384C632.339 262.768 631.462 261.9 630.846 260.78C630.249 259.641 629.95 258.288 629.95 256.72C629.95 255.152 630.249 253.808 630.846 252.688C631.462 251.549 632.339 250.681 633.478 250.084C634.617 249.468 635.979 249.16 637.566 249.16C638.35 249.16 639.097 249.244 639.806 249.412C640.515 249.561 641.206 249.813 641.878 250.168L641.458 251.96C640.823 251.643 640.198 251.409 639.582 251.26C638.966 251.111 638.341 251.036 637.706 251.036C635.97 251.036 634.617 251.54 633.646 252.548C632.675 253.537 632.19 254.928 632.19 256.72C632.19 258.493 632.675 259.884 633.646 260.892C634.617 261.9 635.97 262.404 637.706 262.404C638.341 262.404 638.966 262.329 639.582 262.18C640.198 262.031 640.823 261.797 641.458 261.48L641.878 263.272C641.206 263.608 640.515 263.86 639.806 264.028C639.097 264.196 638.35 264.28 637.566 264.28ZM646.137 264V243.56H648.377V255.684H648.433L655.937 249.44H658.849L650.393 256.44L659.213 264H656.301L648.433 257.168H648.377V264H646.137Z" fill="#A7F3D0"/>
<path d="M315 10C315 4.47715 319.477 0 325 0H427C432.523 0 437 4.47715 437 10V55H315V10Z" fill="#334155"/>
<path d="M333.04 23.12V20.48H335.68V23.12H333.04ZM333.04 38V25.52H335.68V38H333.04ZM339.575 38V25.52H342.047L342.071 27.008H342.119C342.615 26.432 343.215 26 343.919 25.712C344.623 25.424 345.439 25.28 346.367 25.28C347.903 25.28 349.031 25.688 349.751 26.504C350.487 27.32 350.855 28.592 350.855 30.32V38H348.263V30.8C348.263 29.648 348.047 28.8 347.615 28.256C347.199 27.712 346.543 27.44 345.647 27.44C344.975 27.44 344.375 27.576 343.847 27.848C343.319 28.12 342.903 28.488 342.599 28.952C342.311 29.416 342.167 29.952 342.167 30.56V38H339.575ZM358.616 38.24C356.952 38.24 355.648 37.672 354.704 36.536C353.76 35.384 353.288 33.792 353.288 31.76C353.288 29.728 353.76 28.144 354.704 27.008C355.648 25.856 356.952 25.28 358.616 25.28C359.464 25.28 360.232 25.432 360.92 25.736C361.624 26.024 362.2 26.448 362.648 27.008H362.696V20.48H365.288V38H362.816L362.792 36.512H362.744C362.296 37.056 361.704 37.48 360.968 37.784C360.248 38.088 359.464 38.24 358.616 38.24ZM359.192 36.08C359.88 36.08 360.48 35.944 360.992 35.672C361.52 35.4 361.936 35.024 362.24 34.544C362.544 34.064 362.696 33.528 362.696 32.936V30.584C362.696 29.976 362.544 29.44 362.24 28.976C361.936 28.496 361.52 28.12 360.992 27.848C360.48 27.576 359.888 27.44 359.216 27.44C358.144 27.44 357.312 27.816 356.72 28.568C356.128 29.304 355.832 30.368 355.832 31.76C355.832 33.136 356.128 34.2 356.72 34.952C357.312 35.704 358.136 36.08 359.192 36.08ZM374.821 38.24C372.661 38.24 370.997 37.68 369.829 36.56C368.661 35.44 368.077 33.84 368.077 31.76C368.077 29.744 368.613 28.16 369.685 27.008C370.773 25.856 372.261 25.28 374.149 25.28C375.973 25.28 377.373 25.824 378.349 26.912C379.341 28 379.837 29.544 379.837 31.544C379.837 31.752 379.829 31.984 379.813 32.24C379.813 32.496 379.805 32.696 379.789 32.84H369.517V30.8H377.821L377.413 31.424C377.413 30.064 377.141 29.056 376.597 28.4C376.053 27.728 375.237 27.392 374.149 27.392C372.997 27.392 372.117 27.744 371.509 28.448C370.917 29.152 370.621 30.176 370.621 31.52V32.24C370.621 33.536 370.957 34.504 371.629 35.144C372.317 35.768 373.349 36.08 374.725 36.08C375.397 36.08 376.109 36.016 376.861 35.888C377.629 35.744 378.309 35.56 378.901 35.336L379.237 37.424C378.629 37.68 377.933 37.88 377.149 38.024C376.381 38.168 375.605 38.24 374.821 38.24ZM381.034 38L385.138 31.712L381.082 25.52H384.058L386.89 30.32H386.938L389.77 25.52H392.746L388.69 31.712L392.794 38H389.818L386.938 33.104H386.89L384.01 38H381.034ZM395.811 38V34.88H398.931V38H395.811ZM399.155 41.024C400.147 40.928 400.955 40.792 401.579 40.616C402.219 40.456 402.707 40.216 403.043 39.896C403.395 39.592 403.635 39.184 403.763 38.672C403.891 38.16 403.955 37.512 403.955 36.728V25.52H406.595V36.728C406.595 37.88 406.483 38.848 406.259 39.632C406.035 40.416 405.659 41.048 405.131 41.528C404.603 42.024 403.883 42.408 402.971 42.68C402.059 42.952 400.915 43.152 399.539 43.28L399.155 41.024ZM403.955 23.12V20.48H406.595V23.12H403.955ZM414.529 38.24C413.969 38.24 413.385 38.2 412.777 38.12C412.185 38.056 411.617 37.96 411.073 37.832C410.529 37.688 410.049 37.528 409.633 37.352L409.993 35.24C410.697 35.496 411.409 35.704 412.129 35.864C412.849 36.008 413.561 36.08 414.265 36.08C415.193 36.08 415.881 35.952 416.329 35.696C416.793 35.424 417.025 35.024 417.025 34.496C417.025 34.192 416.945 33.944 416.785 33.752C416.625 33.544 416.345 33.36 415.945 33.2C415.545 33.024 414.993 32.856 414.289 32.696C413.329 32.456 412.489 32.176 411.769 31.856C411.065 31.536 410.521 31.128 410.137 30.632C409.753 30.136 409.561 29.512 409.561 28.76C409.561 27.624 409.993 26.76 410.857 26.168C411.737 25.576 413.001 25.28 414.649 25.28C415.417 25.28 416.201 25.344 417.001 25.472C417.817 25.6 418.561 25.784 419.233 26.024L418.849 28.136C418.209 27.896 417.561 27.72 416.905 27.608C416.265 27.496 415.617 27.44 414.961 27.44C414.017 27.44 413.313 27.56 412.849 27.8C412.401 28.024 412.177 28.368 412.177 28.832C412.177 29.104 412.249 29.336 412.393 29.528C412.553 29.72 412.825 29.896 413.209 30.056C413.593 30.216 414.129 30.376 414.817 30.536C415.521 30.696 416.161 30.888 416.737 31.112C417.329 31.336 417.841 31.608 418.273 31.928C418.705 32.232 419.041 32.6 419.281 33.032C419.521 33.464 419.641 33.976 419.641 34.568C419.641 35.336 419.433 35.992 419.017 36.536C418.617 37.08 418.033 37.504 417.265 37.808C416.513 38.096 415.601 38.24 414.529 38.24Z" fill="#FAFAFA"/>
<rect y="488" width="752" height="317" rx="20" fill="#334155"/>
<rect x="67" y="524" width="617" height="40" rx="20" fill="#1E293B"/>
<path d="M107.98 539.84C108.807 539.84 109.553 540.02 110.22 540.38C110.887 540.727 111.407 541.253 111.78 541.96C112.167 542.667 112.36 543.527 112.36 544.54V551H110.56V544.8C110.56 543.707 110.287 542.873 109.74 542.3C109.193 541.713 108.447 541.42 107.5 541.42C106.54 541.42 105.773 541.72 105.2 542.32C104.64 542.92 104.36 543.793 104.36 544.94V551H102.54V536.2H104.36V541.6C104.72 541.04 105.213 540.607 105.84 540.3C106.48 539.993 107.193 539.84 107.98 539.84ZM117.553 541.54V548C117.553 548.533 117.666 548.913 117.893 549.14C118.12 549.353 118.513 549.46 119.073 549.46H120.413V551H118.773C117.76 551 117 550.767 116.493 550.3C115.986 549.833 115.733 549.067 115.733 548V541.54H114.313V540.04H115.733V537.28H117.553V540.04H120.413V541.54H117.553ZM124.838 541.54V548C124.838 548.533 124.951 548.913 125.178 549.14C125.405 549.353 125.798 549.46 126.358 549.46H127.698V551H126.058C125.045 551 124.285 550.767 123.778 550.3C123.271 549.833 123.018 549.067 123.018 548V541.54H121.598V540.04H123.018V537.28H124.838V540.04H127.698V541.54H124.838ZM131.723 542.06C132.083 541.433 132.617 540.913 133.323 540.5C134.043 540.073 134.877 539.86 135.823 539.86C136.797 539.86 137.677 540.093 138.463 540.56C139.263 541.027 139.89 541.687 140.343 542.54C140.797 543.38 141.023 544.36 141.023 545.48C141.023 546.587 140.797 547.573 140.343 548.44C139.89 549.307 139.263 549.98 138.463 550.46C137.677 550.94 136.797 551.18 135.823 551.18C134.89 551.18 134.063 550.973 133.343 550.56C132.637 550.133 132.097 549.607 131.723 548.98V556.2H129.903V540.04H131.723V542.06ZM139.163 545.48C139.163 544.653 138.997 543.933 138.663 543.32C138.33 542.707 137.877 542.24 137.303 541.92C136.743 541.6 136.123 541.44 135.443 541.44C134.777 541.44 134.157 541.607 133.583 541.94C133.023 542.26 132.57 542.733 132.223 543.36C131.89 543.973 131.723 544.687 131.723 545.5C131.723 546.327 131.89 547.053 132.223 547.68C132.57 548.293 133.023 548.767 133.583 549.1C134.157 549.42 134.777 549.58 135.443 549.58C136.123 549.58 136.743 549.42 137.303 549.1C137.877 548.767 138.33 548.293 138.663 547.68C138.997 547.053 139.163 546.32 139.163 545.48ZM147.299 551.18C146.459 551.18 145.706 551.04 145.039 550.76C144.372 550.467 143.846 550.067 143.459 549.56C143.072 549.04 142.859 548.447 142.819 547.78H144.699C144.752 548.327 145.006 548.773 145.459 549.12C145.926 549.467 146.532 549.64 147.279 549.64C147.972 549.64 148.519 549.487 148.919 549.18C149.319 548.873 149.519 548.487 149.519 548.02C149.519 547.54 149.306 547.187 148.879 546.96C148.452 546.72 147.792 546.487 146.899 546.26C146.086 546.047 145.419 545.833 144.899 545.62C144.392 545.393 143.952 545.067 143.579 544.64C143.219 544.2 143.039 543.627 143.039 542.92C143.039 542.36 143.206 541.847 143.539 541.38C143.872 540.913 144.346 540.547 144.959 540.28C145.572 540 146.272 539.86 147.059 539.86C148.272 539.86 149.252 540.167 149.999 540.78C150.746 541.393 151.146 542.233 151.199 543.3H149.379C149.339 542.727 149.106 542.267 148.679 541.92C148.266 541.573 147.706 541.4 146.999 541.4C146.346 541.4 145.826 541.54 145.439 541.82C145.052 542.1 144.859 542.467 144.859 542.92C144.859 543.28 144.972 543.58 145.199 543.82C145.439 544.047 145.732 544.233 146.079 544.38C146.439 544.513 146.932 544.667 147.559 544.84C148.346 545.053 148.986 545.267 149.479 545.48C149.972 545.68 150.392 545.987 150.739 546.4C151.099 546.813 151.286 547.353 151.299 548.02C151.299 548.62 151.132 549.16 150.799 549.64C150.466 550.12 149.992 550.5 149.379 550.78C148.779 551.047 148.086 551.18 147.299 551.18ZM154.448 551.12C154.101 551.12 153.808 551 153.568 550.76C153.328 550.52 153.208 550.227 153.208 549.88C153.208 549.533 153.328 549.24 153.568 549C153.808 548.76 154.101 548.64 154.448 548.64C154.781 548.64 155.061 548.76 155.288 549C155.528 549.24 155.648 549.533 155.648 549.88C155.648 550.227 155.528 550.52 155.288 550.76C155.061 551 154.781 551.12 154.448 551.12ZM154.448 542.56C154.101 542.56 153.808 542.44 153.568 542.2C153.328 541.96 153.208 541.667 153.208 541.32C153.208 540.973 153.328 540.68 153.568 540.44C153.808 540.2 154.101 540.08 154.448 540.08C154.781 540.08 155.061 540.2 155.288 540.44C155.528 540.68 155.648 540.973 155.648 541.32C155.648 541.667 155.528 541.96 155.288 542.2C155.061 542.44 154.781 542.56 154.448 542.56ZM164.926 532.16L159.446 554.4H157.646L163.106 532.16H164.926ZM174.438 532.16L168.958 554.4H167.158L172.618 532.16H174.438ZM192.921 539.92L186.061 556.24H183.081L185.481 550.72L181.041 539.92H184.181L187.041 547.66L189.941 539.92H192.921ZM199.351 551.18C198.284 551.18 197.324 550.947 196.471 550.48C195.617 550 194.944 549.327 194.451 548.46C193.971 547.593 193.731 546.593 193.731 545.46C193.731 544.327 193.977 543.327 194.471 542.46C194.977 541.593 195.664 540.927 196.531 540.46C197.397 539.98 198.364 539.74 199.431 539.74C200.497 539.74 201.464 539.98 202.331 540.46C203.197 540.927 203.877 541.593 204.371 542.46C204.877 543.327 205.131 544.327 205.131 545.46C205.131 546.593 204.871 547.593 204.351 548.46C203.844 549.327 203.151 550 202.271 550.48C201.404 550.947 200.431 551.18 199.351 551.18ZM199.351 548.74C199.857 548.74 200.331 548.62 200.771 548.38C201.224 548.127 201.584 547.753 201.851 547.26C202.117 546.767 202.251 546.167 202.251 545.46C202.251 544.407 201.971 543.6 201.411 543.04C200.864 542.467 200.191 542.18 199.391 542.18C198.591 542.18 197.917 542.467 197.371 543.04C196.837 543.6 196.571 544.407 196.571 545.46C196.571 546.513 196.831 547.327 197.351 547.9C197.884 548.46 198.551 548.74 199.351 548.74ZM217.645 539.92V551H214.825V549.6C214.465 550.08 213.991 550.46 213.405 550.74C212.831 551.007 212.205 551.14 211.525 551.14C210.658 551.14 209.891 550.96 209.225 550.6C208.558 550.227 208.031 549.687 207.645 548.98C207.271 548.26 207.085 547.407 207.085 546.42V539.92H209.885V546.02C209.885 546.9 210.105 547.58 210.545 548.06C210.985 548.527 211.585 548.76 212.345 548.76C213.118 548.76 213.725 548.527 214.165 548.06C214.605 547.58 214.825 546.9 214.825 546.02V539.92H217.645ZM223.207 541.64C223.567 541.053 224.034 540.593 224.607 540.26C225.194 539.927 225.861 539.76 226.607 539.76V542.7H225.867C224.987 542.7 224.321 542.907 223.867 543.32C223.427 543.733 223.207 544.453 223.207 545.48V551H220.407V539.92H223.207V541.64ZM237.013 542.68V545.04H228.533V542.68H237.013ZM255.513 539.92L252.273 551H249.253L247.233 543.26L245.213 551H242.173L238.913 539.92H241.753L243.713 548.36L245.833 539.92H248.793L250.873 548.34L252.833 539.92H255.513ZM267.328 545.22C267.328 545.62 267.302 545.98 267.248 546.3H259.148C259.215 547.1 259.495 547.727 259.988 548.18C260.482 548.633 261.088 548.86 261.808 548.86C262.848 548.86 263.588 548.413 264.028 547.52H267.048C266.728 548.587 266.115 549.467 265.208 550.16C264.302 550.84 263.188 551.18 261.868 551.18C260.802 551.18 259.842 550.947 258.988 550.48C258.148 550 257.488 549.327 257.008 548.46C256.542 547.593 256.308 546.593 256.308 545.46C256.308 544.313 256.542 543.307 257.008 542.44C257.475 541.573 258.128 540.907 258.968 540.44C259.808 539.973 260.775 539.74 261.868 539.74C262.922 539.74 263.862 539.967 264.688 540.42C265.528 540.873 266.175 541.52 266.628 542.36C267.095 543.187 267.328 544.14 267.328 545.22ZM264.428 544.42C264.415 543.7 264.155 543.127 263.648 542.7C263.142 542.26 262.522 542.04 261.788 542.04C261.095 542.04 260.508 542.253 260.028 542.68C259.562 543.093 259.275 543.673 259.168 544.42H264.428ZM272.172 541.54C272.532 541.007 273.026 540.573 273.652 540.24C274.292 539.907 275.019 539.74 275.832 539.74C276.779 539.74 277.632 539.973 278.392 540.44C279.166 540.907 279.772 541.573 280.212 542.44C280.666 543.293 280.892 544.287 280.892 545.42C280.892 546.553 280.666 547.56 280.212 548.44C279.772 549.307 279.166 549.98 278.392 550.46C277.632 550.94 276.779 551.18 275.832 551.18C275.006 551.18 274.279 551.02 273.652 550.7C273.039 550.367 272.546 549.94 272.172 549.42V551H269.372V536.2H272.172V541.54ZM278.032 545.42C278.032 544.753 277.892 544.18 277.612 543.7C277.346 543.207 276.986 542.833 276.532 542.58C276.092 542.327 275.612 542.2 275.092 542.2C274.586 542.2 274.106 542.333 273.652 542.6C273.212 542.853 272.852 543.227 272.572 543.72C272.306 544.213 272.172 544.793 272.172 545.46C272.172 546.127 272.306 546.707 272.572 547.2C272.852 547.693 273.212 548.073 273.652 548.34C274.106 548.593 274.586 548.72 275.092 548.72C275.612 548.72 276.092 548.587 276.532 548.32C276.986 548.053 277.346 547.673 277.612 547.18C277.892 546.687 278.032 546.1 278.032 545.42ZM287.167 551.18C286.26 551.18 285.447 551.02 284.727 550.7C284.007 550.367 283.434 549.92 283.007 549.36C282.594 548.8 282.367 548.18 282.327 547.5H285.147C285.2 547.927 285.407 548.28 285.767 548.56C286.14 548.84 286.6 548.98 287.147 548.98C287.68 548.98 288.094 548.873 288.387 548.66C288.694 548.447 288.847 548.173 288.847 547.84C288.847 547.48 288.66 547.213 288.287 547.04C287.927 546.853 287.347 546.653 286.547 546.44C285.72 546.24 285.04 546.033 284.507 545.82C283.987 545.607 283.534 545.28 283.147 544.84C282.774 544.4 282.587 543.807 282.587 543.06C282.587 542.447 282.76 541.887 283.107 541.38C283.467 540.873 283.974 540.473 284.627 540.18C285.294 539.887 286.074 539.74 286.967 539.74C288.287 539.74 289.34 540.073 290.127 540.74C290.914 541.393 291.347 542.28 291.427 543.4H288.747C288.707 542.96 288.52 542.613 288.187 542.36C287.867 542.093 287.434 541.96 286.887 541.96C286.38 541.96 285.987 542.053 285.707 542.24C285.44 542.427 285.307 542.687 285.307 543.02C285.307 543.393 285.494 543.68 285.867 543.88C286.24 544.067 286.82 544.26 287.607 544.46C288.407 544.66 289.067 544.867 289.587 545.08C290.107 545.293 290.554 545.627 290.927 546.08C291.314 546.52 291.514 547.107 291.527 547.84C291.527 548.48 291.347 549.053 290.987 549.56C290.64 550.067 290.134 550.467 289.467 550.76C288.814 551.04 288.047 551.18 287.167 551.18ZM295.245 538.6C294.752 538.6 294.339 538.447 294.005 538.14C293.685 537.82 293.525 537.427 293.525 536.96C293.525 536.493 293.685 536.107 294.005 535.8C294.339 535.48 294.752 535.32 295.245 535.32C295.739 535.32 296.145 535.48 296.465 535.8C296.799 536.107 296.965 536.493 296.965 536.96C296.965 537.427 296.799 537.82 296.465 538.14C296.145 538.447 295.739 538.6 295.245 538.6ZM296.625 539.92V551H293.825V539.92H296.625ZM302.652 542.22V547.58C302.652 547.953 302.738 548.227 302.912 548.4C303.098 548.56 303.405 548.64 303.832 548.64H305.132V551H303.372C301.012 551 299.832 549.853 299.832 547.56V542.22H298.512V539.92H299.832V537.18H302.652V539.92H305.132V542.22H302.652ZM317.446 545.22C317.446 545.62 317.419 545.98 317.366 546.3H309.266C309.332 547.1 309.612 547.727 310.106 548.18C310.599 548.633 311.206 548.86 311.926 548.86C312.966 548.86 313.706 548.413 314.146 547.52H317.166C316.846 548.587 316.232 549.467 315.326 550.16C314.419 550.84 313.306 551.18 311.986 551.18C310.919 551.18 309.959 550.947 309.106 550.48C308.266 550 307.606 549.327 307.126 548.46C306.659 547.593 306.426 546.593 306.426 545.46C306.426 544.313 306.659 543.307 307.126 542.44C307.592 541.573 308.246 540.907 309.086 540.44C309.926 539.973 310.892 539.74 311.986 539.74C313.039 539.74 313.979 539.967 314.806 540.42C315.646 540.873 316.292 541.52 316.746 542.36C317.212 543.187 317.446 544.14 317.446 545.22ZM314.546 544.42C314.532 543.7 314.272 543.127 313.766 542.7C313.259 542.26 312.639 542.04 311.906 542.04C311.212 542.04 310.626 542.253 310.146 542.68C309.679 543.093 309.392 543.673 309.286 544.42H314.546ZM320.729 551.14C320.223 551.14 319.803 550.987 319.469 550.68C319.149 550.36 318.989 549.967 318.989 549.5C318.989 549.033 319.149 548.647 319.469 548.34C319.803 548.02 320.223 547.86 320.729 547.86C321.223 547.86 321.629 548.02 321.949 548.34C322.269 548.647 322.429 549.033 322.429 549.5C322.429 549.967 322.269 550.36 321.949 550.68C321.629 550.987 321.223 551.14 320.729 551.14ZM323.965 545.46C323.965 544.313 324.198 543.313 324.665 542.46C325.131 541.593 325.778 540.927 326.605 540.46C327.431 539.98 328.378 539.74 329.445 539.74C330.818 539.74 331.951 540.087 332.845 540.78C333.751 541.46 334.358 542.42 334.665 543.66H331.645C331.485 543.18 331.211 542.807 330.825 542.54C330.451 542.26 329.985 542.12 329.425 542.12C328.625 542.12 327.991 542.413 327.525 543C327.058 543.573 326.825 544.393 326.825 545.46C326.825 546.513 327.058 547.333 327.525 547.92C327.991 548.493 328.625 548.78 329.425 548.78C330.558 548.78 331.298 548.273 331.645 547.26H334.665C334.358 548.46 333.751 549.413 332.845 550.12C331.938 550.827 330.805 551.18 329.445 551.18C328.378 551.18 327.431 550.947 326.605 550.48C325.778 550 325.131 549.333 324.665 548.48C324.198 547.613 323.965 546.607 323.965 545.46ZM341.636 551.18C340.569 551.18 339.609 550.947 338.756 550.48C337.903 550 337.229 549.327 336.736 548.46C336.256 547.593 336.016 546.593 336.016 545.46C336.016 544.327 336.263 543.327 336.756 542.46C337.263 541.593 337.949 540.927 338.816 540.46C339.683 539.98 340.649 539.74 341.716 539.74C342.783 539.74 343.749 539.98 344.616 540.46C345.483 540.927 346.163 541.593 346.656 542.46C347.163 543.327 347.416 544.327 347.416 545.46C347.416 546.593 347.156 547.593 346.636 548.46C346.129 549.327 345.436 550 344.556 550.48C343.689 550.947 342.716 551.18 341.636 551.18ZM341.636 548.74C342.143 548.74 342.616 548.62 343.056 548.38C343.509 548.127 343.869 547.753 344.136 547.26C344.403 546.767 344.536 546.167 344.536 545.46C344.536 544.407 344.256 543.6 343.696 543.04C343.149 542.467 342.476 542.18 341.676 542.18C340.876 542.18 340.203 542.467 339.656 543.04C339.123 543.6 338.856 544.407 338.856 545.46C338.856 546.513 339.116 547.327 339.636 547.9C340.169 548.46 340.836 548.74 341.636 548.74ZM363.23 539.76C364.59 539.76 365.683 540.18 366.51 541.02C367.35 541.847 367.77 543.007 367.77 544.5V551H364.97V544.88C364.97 544.013 364.75 543.353 364.31 542.9C363.87 542.433 363.27 542.2 362.51 542.2C361.75 542.2 361.143 542.433 360.69 542.9C360.25 543.353 360.03 544.013 360.03 544.88V551H357.23V544.88C357.23 544.013 357.01 543.353 356.57 542.9C356.13 542.433 355.53 542.2 354.77 542.2C353.997 542.2 353.383 542.433 352.93 542.9C352.49 543.353 352.27 544.013 352.27 544.88V551H349.47V539.92H352.27V541.26C352.63 540.793 353.09 540.427 353.65 540.16C354.223 539.893 354.85 539.76 355.53 539.76C356.397 539.76 357.17 539.947 357.85 540.32C358.53 540.68 359.057 541.2 359.43 541.88C359.79 541.24 360.31 540.727 360.99 540.34C361.683 539.953 362.43 539.76 363.23 539.76Z" fill="#FAFAFA"/>
<rect x="83" y="596" width="320" height="44" rx="10" fill="#64748B"/>
<rect x="441" y="596" width="243" height="165" rx="20" fill="#64748B"/>
<rect x="83" y="655" width="176" height="24" rx="10" fill="#64748B"/>
<rect x="83" y="691" width="274" height="24" rx="10" fill="#64748B"/>
<rect x="83" y="737" width="97" height="20" rx="10" fill="#64748B"/>
<rect x="195" y="737" width="97" height="20" rx="10" fill="#64748B"/>
<path d="M315 238C233.927 241.205 70.8246 295.692 67 488" stroke="url(#paint0_linear_7_54)" stroke-width="3"/>
<defs>
<linearGradient id="paint0_linear_7_54" x1="191" y1="238" x2="191" y2="488" gradientUnits="userSpaceOnUse">
<stop stop-color="#A7F3D0"/>
<stop offset="1" stop-color="#CC4BB6"/>
</linearGradient>
</defs>
</svg>
