<svg width="480" height="480" viewBox="0 0 480 480" fill="none" xmlns="http://www.w3.org/2000/svg">
<rect width="480" height="480" rx="10" fill="#64748B" fill-opacity="0.2"/>
<path d="M216.842 120.234C208.447 120.922 203.799 121.714 197.784 123.424C189.04 125.926 181.605 129.595 174.318 134.995C160.482 145.274 150.667 160.661 146.756 178.216C144.93 186.452 144.911 191.581 146.682 196.585L147.07 197.69L146.184 199.191C144.21 202.527 142.494 205.05 135.189 215.287C127.164 226.525 123.825 231.758 122.035 235.908C119.323 242.162 120.393 244.81 127.201 248.73C128.806 249.647 129.341 249.835 130.983 250.106C133.934 250.606 134.801 250.94 135.705 251.982C136.443 252.796 136.499 252.942 136.499 253.963C136.499 254.651 136.259 255.923 135.853 257.32C135.503 258.571 135.207 259.801 135.207 260.051C135.207 260.781 134.433 262.47 133.363 264.075C132.145 265.91 131.721 266.953 131.702 268.078C131.702 269.934 132.459 271.185 134.857 273.27C136.868 274.98 137.015 275.313 136.277 276.397C136.056 276.731 135.355 277.627 134.709 278.399C134.082 279.191 133.381 280.213 133.16 280.692C132.532 282.089 132.717 282.61 134.801 285.342C137.716 289.178 138.676 291.409 138.473 293.765C138.417 294.411 137.661 297.33 136.812 300.249C135.004 306.337 134.654 308.047 134.654 310.653C134.654 312.884 135.097 314.656 136.056 316.304C138.676 320.786 141.683 323.392 146.387 325.206L148.398 325.978L163.987 326.144L179.576 326.332L180.369 327.312C182.804 330.356 184.981 338.467 186.937 351.769C187.785 357.586 187.822 357.544 189.243 349.413C193.634 323.976 196.235 299.936 195.571 291.034C195.035 283.966 192.102 277.023 184.132 264.075C178.377 254.735 176.771 251.67 175.075 246.77C171.108 235.428 168.654 223.877 167.861 212.827C167.418 206.655 167.714 197.106 168.507 191.414C170.444 177.633 175.204 165.311 182.675 154.74C185.11 151.3 189.999 145.795 193.135 142.96C195.829 140.52 200.256 137.122 203.171 135.225C213.078 128.824 225.199 124.383 238.186 122.36C239.884 122.11 241.249 121.86 241.212 121.818C241.101 121.714 235.825 120.963 232.707 120.63C229.774 120.317 219.019 120.046 216.842 120.234Z" fill="#FED7AA"/>
<path d="M249.31 121.152C246.561 121.318 242.17 121.735 242.078 121.84C242.06 121.881 243.462 122.215 245.214 122.59C265.674 127.073 282.333 137.31 293.586 152.322C302.349 164.039 307.404 177.383 309.304 193.813C309.784 197.962 309.784 210.576 309.304 214.975C308.363 223.607 306.795 231.467 304.341 239.682C301.814 248.188 300.265 251.712 295.892 258.884C288.384 271.227 287.074 273.562 285.008 278.399C282.775 283.612 281.964 286.843 281.761 291.305C281.318 300.875 284.473 328.272 288.697 351.665C289.694 357.107 289.786 357.274 290.21 354.355C291.391 346.161 292.572 340.052 293.789 335.798C294.601 332.963 296.187 329.21 297.091 328.021L297.774 327.146L305.264 327.125C309.396 327.104 316.462 327.041 320.982 326.958L329.192 326.812L330.759 326.229C335.777 324.373 339.947 320.557 341.958 315.929C342.567 314.553 342.64 314.219 342.714 312.28C342.825 309.299 342.456 307.359 340.611 301.125C339.744 298.206 338.988 295.329 338.932 294.725C338.858 293.932 338.932 293.223 339.209 292.202C339.762 290.138 340.537 288.866 343.341 285.259C343.987 284.446 344.448 283.633 344.522 283.216C344.688 282.215 344.079 281.005 342.382 278.879C340.906 277.065 340.556 276.356 340.851 275.793C340.925 275.626 341.792 274.793 342.751 273.959C344.799 272.144 345.537 270.956 345.666 269.33C345.758 267.912 345.463 267.099 343.969 264.826C342.733 262.95 342.198 261.761 342.198 260.927C342.198 260.656 341.903 259.447 341.552 258.259C340.703 255.381 340.685 254.068 341.46 253.067C342.235 252.066 343.452 251.545 346.072 251.066C348.119 250.69 348.544 250.544 350.389 249.46C354.004 247.354 355.296 246.249 356.108 244.602C357.159 242.413 356.882 240.182 355.093 236.242C353.174 231.988 350.057 227.13 342.013 215.913C335.575 206.927 330.391 199.171 330.391 198.566C330.391 198.462 330.612 197.774 330.87 197.023C331.996 193.896 332.346 189.455 331.774 185.368C329.653 170.336 323.454 156.7 313.787 145.754C301.427 131.764 284.62 123.445 264.622 121.464C260.748 121.089 252.944 120.922 249.31 121.152Z" fill="#FED7AA"/>
<path d="M228.65 138.808C226.547 138.975 221.64 139.746 219.149 140.33C190.923 146.793 176.644 168.122 177.548 202.566C178.101 224.354 182.031 237.552 191.181 248.31C191.809 249.019 194.262 251.563 196.642 253.919C199.022 256.275 201.789 259.131 202.786 260.278C208.873 267.221 211.622 274.872 212.083 286.173L212.194 289.196H224.536H236.86V214.054C236.86 145.73 236.841 138.912 236.565 138.787C236.27 138.662 230.366 138.683 228.65 138.808Z" fill="#FED7AA"/>
<path d="M245.435 140.35C241.745 142.456 241.007 143.748 241.026 148.148C241.026 150.233 241.081 150.587 241.616 152.047C241.948 152.985 242.151 153.819 242.077 154.027C242.003 154.236 241.395 155.445 240.712 156.738C240.03 158.03 239.384 159.552 239.254 160.136C238.83 162.159 239.347 163.785 241.081 165.787L242.132 167.016L241.505 167.684C240.712 168.56 240.435 169.164 240.288 170.394C240.159 171.333 240.196 171.416 240.804 172.125C241.173 172.542 241.468 172.98 241.468 173.125C241.468 173.271 241.21 174.502 240.878 175.878C240.325 178.254 240.306 178.567 240.288 182.445C240.288 186.886 240.435 187.824 241.468 190.16C241.966 191.265 243.129 192.703 243.701 192.912C243.904 192.995 243.774 193.454 243.184 194.872C240.528 201.231 240.399 202.002 240.325 210.696L240.269 217.577L240.749 218.724C241.007 219.349 241.524 220.287 241.893 220.767C242.28 221.268 242.575 221.726 242.575 221.768C242.575 221.809 242.28 222.289 241.911 222.81C240.546 224.832 239.919 226.98 240.03 229.128C240.085 230.274 240.196 230.712 240.694 231.567C241.395 232.839 241.413 233.026 240.841 234.903C240.62 235.695 240.177 237.426 239.882 238.74C239.384 241.012 239.347 241.367 239.347 245.724V250.311L240.159 252.25C241.192 254.689 241.192 255.211 240.196 256.962C239.218 258.63 239.07 259.255 239.07 261.507C239.07 262.841 239.218 263.947 239.642 265.781C240.325 268.763 240.915 271.953 240.915 272.662C240.915 272.933 240.731 273.433 240.509 273.767C240.14 274.33 240.103 274.642 240.103 277.269C240.085 279.959 240.122 280.188 240.583 281.273C240.86 281.898 241.431 282.815 241.874 283.295C242.926 284.442 244.697 285.505 245.324 285.338C245.712 285.255 245.951 285.38 246.542 286.068C247.593 287.277 248.719 287.632 251.523 287.611C254.161 287.611 255.471 287.236 258.441 285.609C260.027 284.734 260.581 284.296 261.485 283.212C262.094 282.482 263.275 281.085 264.105 280.126C265.599 278.395 265.636 278.354 266.503 278.354C266.983 278.354 268.089 278.562 268.957 278.792C270.746 279.313 273.643 279.396 275.137 279C276.428 278.646 279.62 276.894 280.45 276.06C281.502 275.018 282.903 271.577 283.365 268.909C283.549 267.762 283.826 266.615 283.974 266.386C284.14 266.094 284.73 265.76 285.634 265.448C287.276 264.885 288.862 263.78 289.859 262.529C290.707 261.466 292.718 257.984 293.493 256.253C294.157 254.794 294.6 252.813 294.6 251.353C294.6 250.228 294.028 246.516 293.696 245.557C293.419 244.723 293.437 243.889 293.806 242.888C294.065 242.159 294.083 241.804 293.899 240.553C293.751 239.49 293.751 238.968 293.899 238.656C294.009 238.406 295.043 237.196 296.186 235.966C297.865 234.152 298.4 233.423 298.917 232.276C300.54 228.606 300.153 224.728 297.736 220.642C296.98 219.349 296.851 219.036 297.072 218.89C297.939 218.349 298.953 217.264 299.286 216.534C300.208 214.533 299.396 209.946 297.552 206.756C297.072 205.943 296.444 205.025 296.131 204.733L295.559 204.191L295.485 201.397C295.412 198.77 295.375 198.52 294.821 197.144C294.379 196.081 293.899 195.351 293.087 194.496L291.962 193.308L292.368 191.515C292.958 188.825 293.179 185.823 292.958 183.363C292.571 179.047 291.279 176.399 288.161 173.459C285.652 171.103 285.339 170.352 285.007 166.308C284.675 162.138 284.232 160.512 283.088 159.24C282.35 158.385 280.985 157.843 279.657 157.843C278.015 157.843 277.701 157.092 278.273 154.549C278.882 151.921 277.83 148.69 275.524 146.063C272.978 143.144 270.137 142.247 266.651 143.248C265.876 143.477 264.806 143.957 264.289 144.311C263.773 144.666 263.09 144.999 262.739 145.062C262.204 145.166 262.02 145.062 261.208 144.207C259.788 142.706 256.559 141.163 254.843 141.163C254.511 141.163 253.94 140.892 253.386 140.433C252.427 139.662 251.486 139.391 249.124 139.203L247.649 139.078L245.435 140.35ZM251.91 141.059C252.888 141.747 253.976 143.394 254.438 144.895C254.604 145.416 254.862 146.647 255.009 147.626C255.231 148.961 255.379 149.461 255.674 149.691C256.541 150.358 255.803 152.338 254.493 152.839C254.161 152.943 253.294 153.026 252.537 153.006C251.597 152.964 251.172 153.026 251.117 153.193C250.988 153.61 251.947 153.902 253.94 154.027C255.471 154.132 255.895 154.09 256.485 153.777C257.352 153.298 257.906 152.13 257.943 150.671C257.961 149.274 257.666 148.46 256.891 147.897C256.356 147.501 256.246 147.272 256.08 146.167C255.969 145.458 255.655 144.353 255.397 143.728C255.139 143.081 254.972 142.518 255.009 142.456C255.157 142.31 257.703 143.248 258.699 143.811C259.898 144.499 261.337 146.042 261.854 147.209C262.481 148.586 262.555 149.732 262.241 152.297C261.835 155.403 261.854 156.279 262.315 156.8C263.164 157.759 263.367 157.217 263.459 153.61C263.514 151.63 263.625 150.441 263.773 150.274C263.902 150.128 264.474 150.024 265.045 150.003C266.392 149.982 266.964 149.774 266.89 149.336C266.835 149.065 266.558 148.961 265.543 148.877C264.824 148.815 264.142 148.69 264.012 148.606C263.791 148.44 262.979 146.792 263.09 146.709C264.271 145.75 266.448 144.645 267.849 144.291C269.547 143.874 271.595 144.186 272.867 145.083C274.251 146.063 276.225 148.836 276.963 150.837C277.369 151.963 277.332 154.173 276.871 155.862C276.668 156.613 276.447 157.217 276.373 157.176C276.299 157.134 275.358 156.613 274.27 156.008C271.927 154.715 270.377 154.194 269.842 154.528C269.307 154.84 269.528 155.195 270.451 155.528C271.687 155.966 273.366 156.842 273.643 157.196C273.79 157.384 274.048 158.051 274.196 158.698C274.583 160.199 274.989 160.637 275.672 160.345C275.948 160.241 276.244 160.136 276.336 160.136C276.594 160.136 277.037 162.117 277.185 163.806C277.332 165.599 277.48 165.974 277.941 165.641C278.439 165.286 278.365 161.742 277.83 160.074L277.461 158.885H278.144C278.974 158.885 280.45 159.323 281.243 159.782C282.11 160.282 283.069 161.658 283.42 162.909C283.641 163.618 283.789 164.952 283.844 166.829L283.955 169.664L283.199 170.332C282.756 170.749 282.35 171.374 282.147 171.937C281.594 173.584 282.073 173.876 283.9 172.938L284.97 172.396L285.671 172.813C286.575 173.334 289.766 177.024 290.412 178.296C292.81 182.967 292.165 191.515 289.084 195.414C288.272 196.435 288.18 196.727 288.585 196.894C288.973 197.061 289.822 196.477 290.541 195.539C291.131 194.788 291.242 194.705 291.593 194.914C292.386 195.414 293.474 197.061 293.88 198.437C294.415 200.272 294.323 203.107 293.677 204.629C293.271 205.588 292.183 207.048 291.851 207.048C291.777 207.048 291.463 206.172 291.15 205.109C290.154 201.71 288.475 199.125 287.221 199.062C286.889 199.042 286.575 199.125 286.538 199.271C286.501 199.417 286.962 200.126 287.571 200.877C289.471 203.191 290.467 206.089 290.32 208.945C290.209 211.176 289.287 213.344 287.995 214.408C286.796 215.409 286.261 216.117 286.335 216.576C286.409 217.077 287.221 217.181 287.94 216.764C289.065 216.096 291.168 212.594 291.371 211.072C291.574 209.383 291.648 209.237 292.441 208.758C292.884 208.507 293.585 207.778 294.028 207.131L294.821 205.985L295.393 206.381C297.127 207.527 298.824 212.302 298.289 214.533C297.957 215.951 296.223 217.786 294.157 218.953L292.497 219.87H290.375C288.29 219.87 288.235 219.891 288.014 220.392C287.885 220.684 287.774 221.163 287.774 221.476C287.774 222.08 285.763 225.604 284.693 226.876C283.937 227.772 282.867 228.356 280.837 228.94C279.325 229.399 278.181 230.004 278.181 230.399C278.181 231.067 281.169 230.9 282.664 230.128C284.047 229.42 285.117 228.252 287.036 225.396C287.921 224.082 289.028 222.602 289.49 222.101C290.246 221.33 290.449 221.226 291.224 221.226C291.722 221.226 292.921 220.934 293.935 220.559L295.762 219.891L296.278 220.579C297.035 221.622 297.847 223.457 298.179 224.895C299.304 229.795 297.201 234.945 293.345 236.779C292.017 237.426 291.87 237.739 292.183 239.365C292.663 241.929 292.257 243.743 290.892 245.057C290.025 245.912 289.102 246.245 287.626 246.245C286.335 246.245 285.929 246.37 285.929 246.787C285.929 247.621 288.549 247.663 291.002 246.892C291.962 246.579 292.331 246.537 292.423 246.725C292.829 247.434 293.032 248.872 293.032 251.04C293.032 253.105 292.958 253.647 292.534 254.981C291.87 257.045 290.504 259.589 289.213 261.174C287.368 263.404 284.804 264.593 281.76 264.593C278.605 264.593 276.631 263.717 274.141 261.153C272.333 259.297 271.927 259.005 271.724 259.38C271.337 260.11 272.462 261.612 275.008 263.821C275.635 264.364 276.244 265.031 276.336 265.302C276.723 266.469 275.635 268.471 274.214 269.201C273.679 269.472 273.015 269.597 271.89 269.597C270.063 269.597 269.141 269.889 269.141 270.431C269.141 271.181 269.658 271.369 271.705 271.369C273.975 271.369 275.1 271.056 276.041 270.181C276.926 269.367 277.424 268.221 277.572 266.678C277.664 265.614 277.738 265.427 277.978 265.531C278.144 265.614 279.232 265.76 280.394 265.885C281.557 266.031 282.535 266.136 282.553 266.157C282.719 266.24 281.391 271.327 280.929 272.349C279.288 276.039 276.207 277.77 271.355 277.77C268.588 277.77 266.835 277.311 264.621 276.06C263.016 275.143 261.891 274.163 262.278 274.017C263.145 273.704 264.16 272.87 264.732 272.015C265.414 270.994 265.599 270.473 266.097 268.158C266.466 266.448 266.78 265.719 267.13 265.844C267.278 265.885 267.942 265.969 268.606 266.011C269.768 266.073 269.879 266.052 270.506 265.427C271.152 264.781 271.392 263.967 270.949 263.967C270.82 263.967 270.395 264.072 270.008 264.197C268.625 264.614 266.337 263.801 264.842 262.341C263.92 261.424 263.127 261.215 262.924 261.799C262.868 261.987 263.238 263.05 263.791 264.28C264.658 266.157 264.769 266.594 264.769 267.679C264.769 269.555 264.234 270.639 262.629 271.911C261.928 272.474 261.19 272.933 261.024 272.933C260.655 272.933 259.363 271.411 259.363 270.994C259.363 270.868 259.492 270.222 259.64 269.597C259.954 268.283 259.99 266.511 259.732 266.052C259.4 265.489 258.865 266.532 258.626 268.179C258.349 270.222 258.164 270.848 257.5 271.953C256.854 273.058 256.559 273.308 254.198 274.705C252.021 275.998 251.818 276.477 253.423 276.477C254.788 276.477 256.485 275.581 257.721 274.184L258.552 273.246L259.308 273.871C260.267 274.642 263.736 277.186 264.308 277.499C264.861 277.832 264.824 277.937 264.012 278.604C263.644 278.896 262.389 280.147 261.227 281.356C258.902 283.795 257.906 284.463 255.212 285.359C252.261 286.318 249.327 286.026 247.556 284.609C247.243 284.358 246.745 283.608 246.449 282.92C246.136 282.253 245.822 281.69 245.73 281.69C245.527 281.69 245.195 282.648 245.121 283.42L245.066 284.025L243.793 282.794C241.321 280.439 240.897 278.604 241.653 273.787L242.077 271.119L243.701 272.307C245.546 273.683 247.095 274.371 247.427 273.996C247.796 273.579 247.353 273.1 245.287 271.682C243 270.097 241.542 268.575 241.247 267.449C241.136 267.032 241.099 266.615 241.155 266.553C241.21 266.469 242.077 266.678 243.074 267.012C244.752 267.575 245.103 267.616 247.833 267.595C250.416 267.595 250.914 267.533 251.799 267.137C254.235 266.052 256.135 263.509 256.67 260.611C256.781 260.068 256.799 260.048 257.961 260.152C259.492 260.298 259.954 260.152 260.821 259.276C261.946 258.13 262.37 256.774 262.463 254.126L262.536 251.895L263.219 252.375C265.71 254.168 267.278 254.627 270.654 254.606C274.768 254.585 278.051 253.793 279.878 252.375C281.04 251.458 282.129 249.748 283.346 246.975C285.394 242.242 286.132 238.677 285.505 236.425L285.246 235.466L286.298 235.237C287.921 234.84 289.877 233.297 290.818 231.63C291.058 231.213 291.371 230.337 291.537 229.67C291.685 229.023 291.851 228.419 291.925 228.356C291.98 228.273 292.737 228.148 293.603 228.085C295.356 227.918 295.983 227.585 296.168 226.688C296.315 225.875 295.983 224.978 295.541 224.978C295.356 224.978 294.84 225.166 294.397 225.396C293.161 226.021 292.534 225.938 291.851 225.083C291.537 224.666 291.279 224.249 291.279 224.145C291.279 223.728 290.301 222.685 289.896 222.685C289.028 222.685 289.084 224.791 290.006 226.501C290.32 227.064 290.541 227.772 290.541 228.168C290.523 229.628 289.194 231.817 287.7 232.797C287.276 233.068 286.261 233.548 285.412 233.84C284.564 234.152 283.826 234.528 283.771 234.695C283.715 234.861 283.826 235.445 284.011 235.987C284.49 237.363 284.453 239.844 283.937 241.971C283.346 244.348 281.539 248.434 280.487 249.748C278.863 251.791 275.579 253.084 271.521 253.272C267.591 253.459 265.138 252.542 262.444 249.873C260.341 247.788 260.156 247.642 259.935 247.788C259.566 248.059 259.732 248.851 260.359 249.852C261.835 252.187 261.577 256.461 259.917 257.587C259.529 257.838 258.773 258.004 257.611 258.109C255.508 258.275 255.305 258.442 255.083 260.256C254.788 262.695 253.312 264.697 251.135 265.614C249.659 266.24 247.169 266.532 245.601 266.261C242.446 265.719 240.177 263.384 240.177 260.736C240.177 260.048 240.694 258.713 241.247 257.942L241.616 257.421L241.911 258.234C242.299 259.255 242.723 259.797 243.129 259.797C243.885 259.797 243.701 258.713 242.188 254.439C241.099 251.353 240.601 249.248 240.343 246.725C239.993 243.076 240.694 238.635 242.299 234.486C243.037 232.61 243.369 232.026 244.272 231.004C244.881 230.337 245.343 229.67 245.306 229.524C245.214 229.211 244.383 229.065 243.756 229.232C243.516 229.315 243.092 229.732 242.834 230.191C242.557 230.65 242.28 231.025 242.206 231.025C242.022 231.025 241.468 228.877 241.468 228.064C241.468 226.98 241.948 225.354 242.575 224.395C243.498 222.935 243.608 222.935 245.859 224.207C246.947 224.832 248.424 225.541 249.124 225.813C249.844 226.084 250.803 226.501 251.283 226.772C252.685 227.564 253.276 226.939 252.095 225.917C251.744 225.604 250.748 225.062 249.899 224.666C245.269 222.623 242.852 220.35 241.8 217.097C241.468 216.076 241.395 215.304 241.321 211.26C241.229 206.026 241.431 203.358 242.096 201.127C242.926 198.333 244.272 195.06 245.361 193.141C246.597 190.973 246.911 189.951 246.32 189.951C246.117 189.951 245.638 190.285 245.251 190.723C244.586 191.452 244.549 191.473 244.07 191.16C243.369 190.681 242.483 189.284 242.04 187.97C241.099 185.114 241.155 179.714 242.188 176.253C242.834 174.064 242.944 172.208 242.483 170.77C242.077 169.456 242.132 168.977 242.852 168.08C244.162 166.454 247.686 164.952 250.601 164.786C252.39 164.681 252.519 164.702 254.788 165.536C258.146 166.787 259.843 166.912 258.81 165.87C258.349 165.411 253.866 163.972 251.855 163.66C249.862 163.326 248.479 163.597 246.081 164.765C243.867 165.849 243.332 165.87 242.483 164.932C241.542 163.91 240.731 161.971 240.731 160.782C240.731 159.636 241.413 157.905 242.723 155.716C243.904 153.756 245.103 152.484 246.781 151.379C248.11 150.525 248.903 149.545 248.811 148.877C248.719 148.315 248.018 148.419 247.28 149.148C245.38 150.942 243.258 152.651 243.11 152.484C242.705 152.026 242.354 149.565 242.446 147.835C242.594 145.02 243.258 143.498 245.011 142.018C245.177 141.872 246.099 141.434 247.04 141.038C249.254 140.121 250.564 140.121 251.91 141.059Z" fill="#FED7AA"/>
<path d="M262.484 159.25C262.576 159.459 263.074 160.168 263.591 160.834C264.753 162.315 264.975 162.815 265.27 164.4C265.749 167.069 265.104 168.466 262.834 169.716C260.565 170.947 260.492 170.947 259.311 169.842C258.739 169.321 258.149 168.904 258.001 168.904C257.448 168.904 257.687 169.883 258.536 171.155C258.997 171.864 259.495 172.886 259.643 173.449C260.141 175.304 261.211 176.326 261.211 174.887C261.211 174.241 261.027 173.24 260.768 172.323C260.658 171.906 260.731 171.864 261.986 171.739C263.591 171.551 264.587 171.093 265.583 170.071C266.303 169.342 266.377 169.321 267.797 169.321C269.605 169.321 270.361 169.05 270.712 168.257C271.007 167.632 271.081 166.818 270.86 166.818C270.767 166.818 270.343 166.943 269.882 167.11C269.421 167.256 268.535 167.465 267.926 167.548L266.783 167.694L266.875 166.36C267.078 163.441 266.155 161.064 264.274 159.584C263.277 158.812 262.17 158.625 262.484 159.25Z" fill="#FED7AA"/>
<path d="M249.105 168.716C249.05 168.841 249.253 169.488 249.566 170.176C249.88 170.843 250.175 171.76 250.249 172.177L250.36 172.97L249.271 172.907C247.98 172.824 247.187 173.116 247.187 173.678C247.187 174.033 247.389 174.075 250.101 174.158C252.426 174.241 253.201 174.346 254.05 174.7C256.337 175.618 257.591 177.16 259.529 181.372C260.432 183.332 261.06 184.374 262.314 185.98C264.122 188.294 264.528 189.274 264.528 191.401C264.528 192.631 264.067 194.028 263.163 195.529C262.536 196.551 262.554 196.926 263.329 198.594C263.679 199.365 263.975 200.241 263.975 200.512C263.975 201.2 263.495 202.451 262.997 203.056C262.13 204.098 260.027 204.974 258.311 204.974C257.481 204.974 257.296 204.891 257.02 204.432C255.894 202.576 254.843 201.638 253.92 201.638C253.164 201.638 253.348 202.201 254.621 203.702C255.949 205.308 256.226 206.1 256.226 208.33V209.873L255.082 210.124C254.455 210.27 253.736 210.541 253.477 210.77C252.998 211.166 251.891 212.667 251.78 213.084C251.725 213.23 251.282 213.147 250.544 212.897C248.09 212.021 245.932 212.146 244.678 213.209C244.014 213.793 243.312 215.315 243.312 216.233C243.312 217.317 243.94 217.046 245.489 215.294C247.426 213.105 248.349 212.98 250.507 214.544C251.153 215.023 251.78 215.399 251.909 215.399C252.039 215.399 252.426 215.002 252.758 214.544C254.714 211.792 255.156 211.437 256.54 211.437C258.385 211.437 260.894 213.46 261.945 215.816C263.255 218.693 263.163 221.966 261.687 225.073C261.115 226.303 261.06 226.574 261.263 226.824C261.595 227.179 262.351 226.97 262.831 226.386C263.292 225.802 263.79 223.488 263.79 221.925C263.79 221.257 263.864 220.611 263.938 220.465C264.362 219.715 267.037 219.381 268.826 219.86C270.192 220.215 271.151 220.715 272.516 221.779C273.752 222.738 274.047 222.571 274.804 220.507C275.413 218.839 276.206 217.692 277.11 217.15C277.387 216.983 278.309 216.712 279.139 216.525C281.058 216.108 281.334 215.962 280.763 215.607C280.172 215.253 277.977 215.461 276.759 215.982C275.302 216.608 274.398 217.525 273.734 219.068C273.42 219.798 273.125 220.402 273.107 220.402C273.088 220.402 272.166 220.006 271.059 219.527C269.214 218.714 268.9 218.651 267.295 218.63C266.336 218.63 265.211 218.714 264.786 218.818L264.03 218.985L263.901 217.942C263.845 217.358 263.495 216.233 263.126 215.419C262.075 213.043 260.359 211.333 258.255 210.582C257.702 210.374 257.259 210.124 257.278 209.999C257.315 209.873 257.389 208.998 257.444 208.018L257.573 206.266L259.436 206.183C261.613 206.1 262.923 205.537 264.104 204.202C265.174 202.993 265.543 201.992 265.543 200.283C265.524 198.719 265.303 198.01 264.454 196.988L263.956 196.384L264.639 195.362C265.856 193.465 266.428 190.817 265.856 189.608C265.653 189.211 265.709 189.191 267.295 189.065C270.653 188.794 273.217 187.856 273.752 186.73C274.029 186.147 273.863 184.917 273.475 184.541C273.236 184.312 273.014 184.458 272.092 185.354C270.671 186.751 269.565 187.293 267.923 187.419C266.779 187.502 266.447 187.439 265.561 186.981C263.569 185.938 262.111 183.999 259.898 179.433C258.053 175.597 256.06 173.803 252.998 173.22C252.186 173.074 251.633 172.865 251.762 172.782C252.371 172.365 251.522 170.364 250.212 169.154C249.437 168.424 249.308 168.383 249.105 168.716Z" fill="#FED7AA"/>
<path d="M273.316 169.568C272.947 170.173 272.947 170.548 273.39 172.445C273.906 174.697 273.869 175.948 273.224 177.616C272.19 180.306 272.227 180.577 273.98 181.619C275.585 182.578 276.563 183.516 277.836 185.309C279.219 187.27 280.105 189.083 280.862 191.481C282.669 197.235 282.024 202.135 278.851 206.472C277.707 208.036 276.194 209.328 273.98 210.6C272.781 211.309 272.375 211.642 272.375 211.955C272.375 213.373 276.36 211.455 278.297 209.12C278.721 208.619 279.367 207.827 279.717 207.369L280.382 206.534L281.544 207.202C282.429 207.723 282.854 208.14 283.352 208.974C284.33 210.6 285.012 211.434 285.4 211.434C286.285 211.434 285.344 208.39 284.127 207.285C283.5 206.743 282.226 205.992 281.489 205.742C281.23 205.638 281.286 205.429 281.821 204.199C282.761 202.031 283.038 200.196 282.928 196.693L282.835 193.753L284.016 192.586C285.381 191.21 286.47 190.606 287.54 190.585C288.518 190.585 289.255 190.272 289.255 189.876C289.255 189.125 286.359 189.188 285.012 189.959C284.588 190.209 283.832 190.834 283.352 191.335C282.411 192.336 282.245 192.419 282.245 191.919C282.245 191.043 281.028 188.228 280.105 186.998C279.57 186.289 279.09 185.497 279.035 185.247C278.961 184.934 279.146 184.434 279.588 183.662C280.456 182.203 281.138 180.681 281.138 180.18C281.138 179.659 281.489 179.534 282.891 179.534C283.869 179.534 284.256 179.659 285.289 180.285C285.972 180.681 286.71 180.994 286.931 180.952C287.447 180.869 287.558 179.951 287.097 179.492C286.617 179.013 284.237 178.283 282.595 178.137L281.175 178.012L281.101 176.115C281.046 174.343 280.991 174.134 280.419 173.217C279.773 172.216 278.851 171.382 277.965 171.007C277.135 170.652 277.172 171.111 278.057 172.174C279.035 173.384 279.367 174.071 279.644 175.531C280.086 177.866 279.717 180.118 278.537 182.453L277.947 183.6L276.766 182.14C276.12 181.327 275.364 180.264 275.105 179.763C274.626 178.867 274.626 178.846 274.865 177.199C275.105 175.552 275.032 174.03 274.663 171.82C274.478 170.777 273.869 169.109 273.667 169.109C273.63 169.109 273.464 169.318 273.316 169.568Z" fill="#FED7AA"/>
<path d="M249.278 180.93C248.853 181.118 249.019 181.41 249.924 182.035C250.717 182.619 253.097 185.392 253.097 185.747C253.097 185.83 252.765 186.435 252.359 187.123C251.51 188.54 251.27 189.354 251.123 191.209C251.012 192.752 251.289 194.524 251.805 195.713C252.008 196.15 252.174 196.526 252.174 196.547C252.174 196.567 251.455 196.609 250.551 196.672C248.761 196.797 247.986 197.13 246.621 198.402C245.533 199.445 245.016 200.362 245.367 200.612C245.809 200.925 246.031 200.821 247.138 199.757C247.728 199.174 248.651 198.465 249.185 198.152L250.163 197.61L252.691 197.839C255.126 198.09 255.698 198.006 255.421 197.485C255.347 197.36 254.978 197.193 254.609 197.13C254.222 197.068 253.798 196.901 253.632 196.776C253.134 196.359 252.488 192.856 252.599 191.251C252.709 189.583 253.17 187.936 253.742 187.123C254.093 186.622 254.314 186.518 255.458 186.414C257.192 186.226 257.709 185.83 257.709 184.725V183.891L257.026 184.058C255.403 184.454 254.111 183.974 252.414 182.411C250.993 181.076 249.979 180.597 249.278 180.93Z" fill="#FED7AA"/>
<path d="M256.232 227.466C256.232 227.57 256.398 228.258 256.601 228.988C256.804 229.697 256.97 230.552 256.97 230.844C256.97 231.636 256.601 232.72 256.159 233.283C255.79 233.742 255.679 233.763 254.295 233.638C252.58 233.471 252.007 233.659 251.067 234.68C250.624 235.16 250.071 235.472 249.259 235.723C248.632 235.889 247.894 236.16 247.654 236.286C246.621 236.807 247.469 237.453 248.853 237.203C249.259 237.14 250.458 236.661 251.528 236.14C252.579 235.618 253.557 235.201 253.668 235.201C253.779 235.201 254.369 235.452 254.959 235.743C256.029 236.286 256.122 236.306 258.686 236.181C261.767 236.035 263.058 235.702 264.737 234.576C266.527 233.367 267.117 232.616 267.117 231.511V230.594L266.619 230.906C266.324 231.073 265.826 231.532 265.493 231.949C265.161 232.366 264.589 232.929 264.202 233.221C262.966 234.138 258.852 235.243 257.93 234.909C257.542 234.763 257.542 234.763 258.003 233.805C258.372 232.991 258.446 232.553 258.446 230.99C258.446 228.884 258.188 228.092 257.339 227.591C256.73 227.237 256.232 227.174 256.232 227.466Z" fill="#FED7AA"/>
<path d="M274.253 229.716C273.995 230.008 274.143 231.113 274.77 233.281C275.526 235.992 275.693 236.972 275.508 238.223C275.121 241.142 271.726 242.33 268.664 240.621C268.036 240.287 267.483 239.995 267.428 239.995C267.354 239.995 266.893 240.412 266.376 240.933C263.424 243.894 258.185 244.895 253.942 243.289C252.189 242.643 251.101 241.934 249.846 240.6C248.555 239.244 247.891 239.036 247.78 239.953C247.688 240.6 248.574 241.517 250.529 242.851L252.079 243.894L252.226 245.02C252.484 246.896 252.152 247.605 250.529 248.752C248.924 249.878 248.666 250.232 249.035 250.732C249.256 251.024 249.496 251.066 250.271 250.983C252.632 250.712 253.518 249.44 253.425 246.5C253.388 245.562 253.407 244.79 253.444 244.79C253.499 244.79 254.237 244.936 255.104 245.124C257.281 245.583 261.284 245.416 263.24 244.79C264.808 244.29 267.114 243.06 267.575 242.497C267.87 242.122 267.907 242.122 268.516 242.601C270.213 243.894 274.05 243.414 275.674 241.704C276.375 240.954 276.892 239.661 276.892 238.577C276.892 237.576 276.08 232.885 275.674 231.613C275.397 230.738 274.733 229.57 274.512 229.57C274.438 229.57 274.309 229.633 274.253 229.716Z" fill="#FED7AA"/>
<path d="M212.141 297.332V302.336H237.507H262.873L262.836 297.374L262.781 292.432L237.47 292.37L212.141 292.328V297.332Z" fill="#FED7AA"/>
<path d="M214.167 305.774C214.167 305.836 214.167 308.067 214.148 310.715V315.573L236.858 315.636L259.55 315.677L259.513 310.736L259.458 305.774L236.821 305.711C224.35 305.69 214.167 305.711 214.167 305.774Z" fill="#FED7AA"/>
<path d="M216.938 324.441V329.445H236.677H256.417V324.441V319.438H236.677H216.938V324.441Z" fill="#FED7AA"/>
</svg>
