<svg width="120" height="120" viewBox="0 0 120 120" fill="none" xmlns="http://www.w3.org/2000/svg">
<rect width="120" height="120" rx="10" fill="#64748B"/>
<path d="M44.8709 67.1262C48.6261 67.1262 51.6703 64.082 51.6703 60.3268C51.6703 56.5716 48.6261 53.5273 44.8709 53.5273C41.1156 53.5273 38.0714 56.5716 38.0714 60.3268C38.0714 64.082 41.1156 67.1262 44.8709 67.1262ZM28.7995 80.7251C32.5547 80.7251 35.5989 77.6809 35.5989 73.9257C35.5989 70.1705 32.5547 67.1262 28.7995 67.1262C25.0442 67.1262 22 70.1705 22 73.9257C22 77.6809 25.0442 80.7251 28.7995 80.7251ZM90.2006 80.7251C93.9558 80.7251 97 77.6809 97 73.9257C97 70.1705 93.9558 67.1262 90.2006 67.1262C86.4453 67.1262 83.4011 70.1705 83.4011 73.9257C83.4011 77.6809 86.4453 80.7251 90.2006 80.7251Z" fill="black"/>
<path d="M67.8727 60.6123C67.6553 58.3407 67.5446 56.4499 65.8043 55.121C63.6004 53.4381 61.1039 54.5301 58.0287 53.4201C55.0069 52.6891 52.7656 50.0062 52.7656 46.8084C52.7656 43.0482 55.8646 40 59.6874 40C62.5187 40 64.953 41.6721 66.0253 44.0672C67.6663 47.1842 66.5998 50.3565 68.6616 51.9543C71.103 53.8463 74.3944 52.4608 78.067 54.2534C79.2471 54.7957 80.246 55.6558 80.9498 56.7218C81.6537 57.7877 82.0625 59.0595 82.0625 60.4253C82.0625 63.6231 79.8212 66.306 76.7995 67.037C73.7243 68.1469 71.2277 67.055 69.0238 68.7379C66.5454 70.6304 67.8722 73.7965 65.8524 77.1409C64.7059 79.3432 62.3756 80.8506 59.6874 80.8506C55.8646 80.8506 52.7656 77.8023 52.7656 74.0421C52.7656 71.3106 54.4009 68.9548 56.7611 67.8703C60.4337 66.0777 63.7252 67.4632 66.1665 65.5712C67.5749 64.4797 67.8727 62.796 67.8727 60.6123Z" fill="#D0021B"/>
</svg>
